<svg width="31" height="31" viewBox="0 0 31 31" fill="none" xmlns="http://www.w3.org/2000/svg">
<path d="M19.8589 3.95062H18.0425V7.09906H19.8589V3.95062Z" fill="#E3CEA3"/>
<path d="M23.4922 3.95062H21.6758V7.09906H23.4922V3.95062Z" fill="#E3CEA3"/>
<path d="M16.2261 3.95062H14.4097V7.09906H16.2261V3.95062Z" fill="#E3CEA3"/>
<path d="M19.8589 8.91553H18.0425V12.064H19.8589V8.91553Z" fill="#E3CEA3"/>
<path d="M23.4922 8.91553H21.6758V12.064H23.4922V8.91553Z" fill="#E3CEA3"/>
<path d="M16.2261 8.91553H14.4097V12.064H16.2261V8.91553Z" fill="#E3CEA3"/>
<path d="M9.14209 10.2073H7.32568V12.7933H9.14209V10.2073Z" fill="#E3CEA3"/>
<path d="M9.14209 14.6098H7.32568V17.1958H9.14209V14.6098Z" fill="#E3CEA3"/>
<path d="M9.14209 19.0124H7.32568V21.5984H9.14209V19.0124Z" fill="#E3CEA3"/>
<path d="M9.14209 23.4149H7.32568V26.0009H9.14209V23.4149Z" fill="#E3CEA3"/>
<path d="M19.8589 13.8805H18.0425V17.0289H19.8589V13.8805Z" fill="#E3CEA3"/>
<path d="M23.4922 13.8805H21.6758V17.0289H23.4922V13.8805Z" fill="#E3CEA3"/>
<path d="M16.2261 13.8805H14.4097V17.0289H16.2261V13.8805Z" fill="#E3CEA3"/>
<path d="M19.8589 18.8455H18.0425V21.9939H19.8589V18.8455Z" fill="#E3CEA3"/>
<path d="M23.4922 18.8455H21.6758V21.9939H23.4922V18.8455Z" fill="#E3CEA3"/>
<path d="M16.2261 18.8455H14.4097V21.9939H16.2261V18.8455Z" fill="#E3CEA3"/>
<path d="M23.4922 23.8104H21.6758V26.9589H23.4922V23.8104Z" fill="#E3CEA3"/>
<path d="M16.2261 23.8104H14.4097V26.9589H16.2261V23.8104Z" fill="#E3CEA3"/>
<path d="M27.1252 29.1683V0.0144043H10.7767V6.52628H3.87476V29.1683H0V30.9847H31V29.1683H27.1252V29.1683ZM25.3088 1.83081V29.1683H19.8591V23.81H18.0427V29.1683H12.5931V1.83081H25.3088ZM5.69116 8.34269H10.7767V29.1683H5.69116V8.34269Z" fill="#E3CEA3"/>
</svg>
