<svg width="40" height="40" viewBox="0 0 40 40" fill="none" xmlns="http://www.w3.org/2000/svg">
<g clip-path="url(#clip0)">
<path d="M34.523 26.6342C34.3769 26.4888 34.1762 26.4053 33.9699 26.4053C33.7645 26.4053 33.5637 26.4888 33.4176 26.6342C33.2723 26.7795 33.1895 26.981 33.1895 27.1866C33.1895 27.392 33.2723 27.5936 33.4176 27.7388C33.5637 27.8841 33.7645 27.9678 33.9699 27.9678C34.1762 27.9678 34.3769 27.8842 34.523 27.7388C34.6684 27.5936 34.7512 27.392 34.7512 27.1866C34.7512 26.981 34.6684 26.7795 34.523 26.6342Z" fill="#E3CEA3"/>
<path d="M15.1298 13.2814H11.3799C10.9484 13.2814 10.5986 13.6312 10.5986 14.0627V18.4375C10.5986 18.8689 10.9484 19.2188 11.3799 19.2188H15.1298C15.5613 19.2188 15.9111 18.8689 15.9111 18.4375V14.0626C15.9111 13.6312 15.5613 13.2814 15.1298 13.2814ZM14.3486 17.6563H12.1611V14.8439H14.3486V17.6563Z" fill="#E3CEA3"/>
<path d="M21.9257 13.2814H18.1758C17.7443 13.2814 17.3945 13.6312 17.3945 14.0627V18.4375C17.3945 18.8689 17.7443 19.2188 18.1758 19.2188H21.9257C22.3572 19.2188 22.707 18.8689 22.707 18.4375V14.0626C22.707 13.6312 22.3572 13.2814 21.9257 13.2814ZM21.1445 17.6563H18.957V14.8439H21.1445V17.6563Z" fill="#E3CEA3"/>
<path d="M28.7221 13.2814H24.9722C24.5407 13.2814 24.1909 13.6312 24.1909 14.0627V18.4375C24.1909 18.8689 24.5407 19.2188 24.9722 19.2188H28.7221C29.1536 19.2188 29.5033 18.8689 29.5033 18.4375V14.0626C29.5033 13.6312 29.1536 13.2814 28.7221 13.2814ZM27.9408 17.6563H25.7534V14.8439H27.9408V17.6563Z" fill="#E3CEA3"/>
<path d="M15.1298 21.5624H11.3799C10.9484 21.5624 10.5986 21.9123 10.5986 22.3437V26.7186C10.5986 27.15 10.9484 27.4999 11.3799 27.4999H15.1298C15.5613 27.4999 15.9111 27.15 15.9111 26.7186V22.3437C15.9111 21.9122 15.5613 21.5624 15.1298 21.5624ZM14.3486 25.9374H12.1611V23.1249H14.3486V25.9374Z" fill="#E3CEA3"/>
<path d="M21.9257 21.5624H18.1758C17.7443 21.5624 17.3945 21.9123 17.3945 22.3437V26.7186C17.3945 27.15 17.7443 27.4999 18.1758 27.4999H21.9257C22.3572 27.4999 22.707 27.15 22.707 26.7186V22.3437C22.707 21.9122 22.3572 21.5624 21.9257 21.5624ZM21.1445 25.9374H18.957V23.1249H21.1445V25.9374Z" fill="#E3CEA3"/>
<path d="M1.33408 31.0349C1.18877 30.8896 0.987207 30.8059 0.781738 30.8059C0.575488 30.8059 0.374707 30.8895 0.229395 31.0349C0.084082 31.1802 0.000488281 31.3817 0.000488281 31.5872C0.000488281 31.7927 0.084082 31.9943 0.229395 32.1395C0.374707 32.2849 0.576191 32.3684 0.781738 32.3684C0.987207 32.3684 1.18877 32.2849 1.33408 32.1395C1.47939 31.9943 1.56299 31.7927 1.56299 31.5872C1.56299 31.3816 1.47939 31.1801 1.33408 31.0349Z" fill="#E3CEA3"/>
<path d="M39.2182 14.2971H38.7825L38.5599 12.9993L39.6469 11.9397C39.9671 11.6275 40.0802 11.1695 39.942 10.7442C39.8038 10.3189 39.4431 10.0147 39.0004 9.95028L37.4983 9.73208L36.8265 8.37091C36.6286 7.96989 36.2279 7.72083 35.7807 7.72083C35.3335 7.72083 34.9327 7.96989 34.7348 8.37091L34.063 9.73208L32.5608 9.95036C32.4856 9.9613 32.4129 9.97966 32.3432 10.0039V9.84388C32.3432 9.41247 31.9934 9.06263 31.5619 9.06263H31.1262L30.9036 7.76481L31.9907 6.70528C32.3109 6.3931 32.4239 5.93505 32.2857 5.50974C32.1475 5.08442 31.7868 4.7802 31.3442 4.71583L29.8421 4.49763L29.1703 3.13646C28.9724 2.73544 28.5716 2.48638 28.1244 2.48638C27.6772 2.48638 27.2764 2.73544 27.0786 3.13646L26.4068 4.49763L24.9046 4.71591C24.8925 4.71763 24.8807 4.72028 24.8688 4.72239C25.0907 4.40317 25.154 3.99864 25.0304 3.61817C24.8813 3.15927 24.4921 2.83106 24.0145 2.76153L22.0554 2.47692L21.1796 0.702003C20.9661 0.269269 20.5336 0.000518799 20.0511 0.000518799C19.5686 0.000518799 19.1361 0.269269 18.9225 0.702003L18.0464 2.47731L16.0872 2.762C15.6097 2.83146 15.2204 3.15966 15.0714 3.61856C14.945 4.00778 15.0142 4.42208 15.2487 4.74458C15.2046 4.73286 15.1597 4.72294 15.1136 4.71622L13.6115 4.49802L12.9397 3.13685C12.7418 2.73583 12.3411 2.48677 11.8939 2.48677C11.4467 2.48677 11.0459 2.73583 10.848 3.13685L10.1762 4.49802L8.67403 4.7163C8.23145 4.7806 7.87074 5.08481 7.73262 5.51013C7.59442 5.93536 7.70754 6.39349 8.02778 6.70567L9.11473 7.7652L8.89215 9.06302H8.43754C8.00606 9.06302 7.65629 9.41286 7.65629 9.84427V10.0042C7.58645 9.97997 7.51379 9.96153 7.43848 9.95059L5.93637 9.73239L5.26457 8.37122C5.06668 7.9702 4.6659 7.72114 4.21871 7.72114C3.77153 7.72114 3.37074 7.9702 3.17285 8.37122L2.50106 9.73239L0.99887 9.95067C0.556292 10.015 0.195588 10.3192 0.0574634 10.7445C-0.0807398 11.1697 0.0323852 11.6279 0.35262 11.94L1.43957 12.9996L1.21699 14.2974H0.781292C0.349807 14.2974 4.14785e-05 14.6472 4.14785e-05 15.0786V28.2033C4.14785e-05 28.6347 0.349807 28.9846 0.781292 28.9846C1.21278 28.9846 1.56254 28.6347 1.56254 28.2033V15.8596H7.65614V31.9171C6.21645 32.1139 4.96129 32.9834 4.26957 34.252C3.98871 34.1782 3.69824 34.1403 3.40606 34.1403C1.53223 34.1403 0.00769773 35.6648 0.00769773 37.5386C0.00769773 38.3351 0.28926 39.1097 0.800666 39.72C0.949104 39.8972 1.16832 39.9995 1.39949 39.9995H39.2179C39.6494 39.9995 39.9992 39.6496 39.9992 39.2182V15.0782C39.9995 14.6468 39.6497 14.2971 39.2182 14.2971ZM34.494 11.2483C34.874 11.1931 35.2023 10.9545 35.3722 10.6104L35.7808 9.78231L36.1894 10.6102C36.3593 10.9545 36.6875 11.1931 37.0676 11.2484L37.9814 11.3811L37.3204 12.0256C37.0454 12.2935 36.92 12.6794 36.9848 13.058L37.1409 13.9681L36.3236 13.5383C36.1536 13.449 35.9673 13.4043 35.7809 13.4043C35.5945 13.4043 35.4081 13.449 35.2382 13.5383L34.4209 13.9681L34.5771 13.0579C34.6419 12.6794 34.5164 12.2935 34.2416 12.0257L33.5804 11.3811L34.494 11.2483ZM33.0018 12.9993L32.7792 14.2971H32.3435V12.3577L33.0018 12.9993ZM26.838 6.01411C27.218 5.95888 27.5463 5.72028 27.7161 5.37614L28.1248 4.5481L28.5334 5.37599C28.7032 5.72028 29.0315 5.95888 29.4116 6.01419L30.3254 6.14692L29.6643 6.79138C29.3893 7.05927 29.2639 7.4452 29.3288 7.8238L29.4849 8.73388L28.6675 8.30411C28.4976 8.21474 28.3113 8.17013 28.1249 8.17013C27.9385 8.17013 27.7521 8.21481 27.5821 8.30411L26.7649 8.73388L26.9211 7.82364C26.9859 7.4452 26.8604 7.05927 26.5856 6.79145L25.9243 6.14692L26.838 6.01411ZM23.9224 5.67864C23.8589 6.05294 23.9805 6.43427 24.2588 6.70552L25.3457 7.76505L25.1232 9.06286H23.4915C23.6271 8.81802 23.6791 8.53067 23.6295 8.24161L23.2948 6.29044L23.9224 5.67864ZM18.4293 4.0006C18.8392 3.94099 19.1934 3.68364 19.3768 3.31208L20.0511 1.94583L20.7254 3.31208C20.9088 3.68356 21.263 3.94099 21.673 4.0006L23.1807 4.21966L22.0898 5.2831C21.7931 5.57224 21.6578 5.98864 21.7278 6.39708L21.9854 7.89872L20.6368 7.18974C20.2701 6.997 19.8322 6.99692 19.4655 7.18974L18.1169 7.89872L18.3745 6.397C18.4445 5.98864 18.3092 5.57216 18.0125 5.2831L16.9215 4.21966L18.4293 4.0006ZM20.8421 9.06278H19.2602L20.0511 8.647L20.8421 9.06278ZM15.7601 6.70552C16.064 6.40927 16.1809 5.98161 16.0739 5.57528L16.8075 6.29036L16.4729 8.24161C16.4232 8.53067 16.4752 8.81802 16.6108 9.06286H14.8957L14.6732 7.76505L15.7601 6.70552ZM10.6073 6.01411C10.9873 5.95888 11.3156 5.72028 11.4854 5.37614L11.8941 4.5481L12.3027 5.37599C12.4725 5.72028 12.8008 5.95888 13.1809 6.01419L14.0947 6.14692L13.4336 6.79138C13.1586 7.05927 13.0332 7.4452 13.0981 7.8238L13.2542 8.73388L12.4369 8.30419C12.267 8.21474 12.0806 8.17013 11.8942 8.17013C11.7078 8.17013 11.5214 8.21474 11.3514 8.30411L10.5341 8.73388L10.6903 7.82364C10.7551 7.4452 10.6297 7.05927 10.3548 6.79145L9.69356 6.14692L10.6073 6.01411ZM5.75848 12.0257C5.48348 12.2936 5.35809 12.6795 5.42293 13.0581L5.57903 13.9682L4.76168 13.5384C4.59176 13.449 4.40543 13.4044 4.21903 13.4044C4.03262 13.4044 3.84621 13.4491 3.67629 13.5384L2.85903 13.9682L3.0152 13.0579C3.08004 12.6795 2.95457 12.2936 2.67973 12.0258L2.01848 11.3812L2.93231 11.2484C3.31231 11.1932 3.64059 10.9546 3.81043 10.6104L4.2191 9.78239L4.6277 10.6103C4.79754 10.9546 5.12582 11.1932 5.5059 11.2485L6.41973 11.3812L5.75848 12.0257ZM7.22082 14.2971L6.99825 12.9993L7.6566 12.3575V14.297H7.22082V14.2971ZM13.5073 38.4371H8.4377H1.80567C1.65262 38.1643 1.57051 37.8546 1.57051 37.5386C1.57051 36.5263 2.3941 35.7028 3.40637 35.7028C3.71973 35.7028 4.02926 35.7834 4.30145 35.9359C4.50488 36.0498 4.74856 36.0671 4.96606 35.9827C5.18348 35.8983 5.35184 35.7212 5.42504 35.4997C5.83324 34.2661 6.98074 33.4372 8.28035 33.4372C9.47481 33.4372 10.5565 34.1449 11.0362 35.24C11.1675 35.5396 11.4718 35.7261 11.7982 35.7064C11.834 35.7043 11.8701 35.7028 11.9064 35.7028C12.9188 35.7028 13.7423 36.5264 13.7423 37.5386C13.7425 37.8546 13.6604 38.1643 13.5073 38.4371ZM22.3948 38.4371H18.8978L20.4059 36.9289C20.711 36.6239 20.711 36.1292 20.4059 35.824C20.1008 35.519 19.6061 35.519 19.301 35.824L17.7074 37.4176V35.3098C17.7116 35.3057 17.7162 35.3022 17.7204 35.2981L21.6125 31.4059H22.3948V38.4371ZM17.7074 33.1014V31.4061H19.4028L17.7074 33.1014ZM38.437 38.437H34.7514V36.4687C36.2062 36.2795 37.4982 35.5696 38.437 34.5329V38.437ZM34.7514 34.8887V29.9217C34.7514 29.4902 34.4017 29.1404 33.9702 29.1404C33.5387 29.1404 33.1889 29.4903 33.1889 29.9217V34.8887C31.0974 34.518 29.5034 32.6882 29.5034 30.4918C29.5034 29.2428 30.0321 28.0422 30.9537 27.1976C31.11 27.0543 31.2014 26.8537 31.2069 26.6417C31.2457 25.1317 32.4596 23.9489 33.9702 23.9489C35.4808 23.9489 36.6946 25.1318 36.7335 26.6417C36.7389 26.8537 36.8304 27.0543 36.9867 27.1976C37.9083 28.0422 38.437 29.2428 38.437 30.4918C38.437 32.6882 36.8431 34.518 34.7514 34.8887ZM38.437 26.4445C38.3837 26.3857 38.3301 26.3271 38.2743 26.2702C38.172 25.2636 37.7239 24.3318 36.9925 23.6174C36.1798 22.8236 35.1064 22.3864 33.9702 22.3864C32.8339 22.3864 31.7606 22.8236 30.9478 23.6174C30.2164 24.3317 29.7683 25.2637 29.666 26.2702C29.6103 26.3271 29.5566 26.3857 29.5033 26.4446V22.3438C29.5033 21.9124 29.1536 21.5625 28.7221 21.5625H24.9722C24.5407 21.5625 24.1909 21.9124 24.1909 22.3438V26.7187C24.1909 27.1501 24.5407 27.5 24.9722 27.5H28.7221C28.7279 27.5 28.7336 27.4992 28.7393 27.4991C28.2229 28.4028 27.9408 29.4341 27.9408 30.4919C27.9408 33.5515 30.2322 36.0843 33.1888 36.4688V38.4371H23.9573V30.6247C23.9573 30.1933 23.6075 29.8435 23.1761 29.8435H16.9262C16.4947 29.8435 16.145 30.1933 16.145 30.6247V38.4371H15.1832C15.2631 38.1461 15.3049 37.844 15.3049 37.5386C15.3049 35.7759 13.9559 34.3224 12.2361 34.1561C11.5832 33.0278 10.4814 32.2374 9.21895 31.9725V10.6253H30.781V20C30.781 20.4314 31.1307 20.7813 31.5622 20.7813C31.9937 20.7813 32.3435 20.4314 32.3435 20V15.8595H38.4371V26.4445H38.437ZM27.941 23.125V25.9374H25.7536V23.125H27.941Z" fill="#E3CEA3"/>
</g>
<defs>
<clipPath id="clip0">
<rect width="40" height="40" fill="white"/>
</clipPath>
</defs>
</svg>
