<svg width="19" height="14" viewBox="0 0 19 14" fill="none" xmlns="http://www.w3.org/2000/svg">
<path d="M18.4138 6.20638L7.89961 0.232243C7.08862 -0.229294 5.97857 0.0195289 5.44396 0.779611L3.40708 3.6724C3.20718 3.95665 3.10156 4.28982 3.10156 4.63653C3.10156 5.2355 3.42566 5.79341 3.94697 6.09231L6.16445 7.36452L5.76387 7.89557C5.54692 8.18281 5.42767 8.53895 5.42767 8.89812C5.42767 9.26747 5.56383 9.61491 5.78314 9.90211L5.19295 10.7844H2.32615V9.62509C2.32615 9.41201 2.15274 9.24375 1.93845 9.24375H0.387704C0.173407 9.24375 0 9.41201 0 9.62509V13.4801C0 13.6932 0.173407 13.8656 0.387704 13.8656H1.93848C2.15278 13.8656 2.32619 13.6932 2.32619 13.4801V13.0953H5.19299C5.97254 13.0953 6.69604 12.7106 7.12842 12.0658L7.76389 11.1179C7.88627 11.1443 8.0097 11.1683 8.13586 11.1683C8.75298 11.1683 9.33375 10.8415 9.65106 10.3152L10.077 9.60924L13.3765 11.5022C13.436 11.5365 13.503 11.5538 13.5704 11.5538C13.6078 11.5538 13.6453 11.5485 13.6821 11.5376C13.7843 11.5067 13.8695 11.4356 13.9172 11.3407L14.2042 10.7691C14.2513 10.7727 14.2966 10.7828 14.3446 10.7828C15.8409 10.7828 17.0585 9.57208 17.0585 8.08427C17.0585 7.92088 17.0342 7.75251 16.9981 7.58038L18.3949 6.88598C18.5229 6.82235 18.6051 6.69399 18.6092 6.55169C18.613 6.40967 18.538 6.27679 18.4138 6.20638ZM1.55078 13.0953H0.775372V10.0141H1.55074V13.0953H1.55078ZM6.48324 11.6401C6.19512 12.0696 5.71277 12.3261 5.19295 12.3261H2.32615V11.5558H5.19295C5.45344 11.5558 5.6946 11.4276 5.83809 11.2128L6.37496 10.4125L7.04075 10.8093L6.48324 11.6401ZM8.98621 9.9219C8.71514 10.3699 8.0772 10.5294 7.62589 10.2597L6.64265 9.67365C6.37158 9.51229 6.20308 9.21667 6.20308 8.9026C6.20308 8.70927 6.26745 8.51782 6.38405 8.36285L6.8407 7.758L9.40528 9.22801L8.98621 9.9219ZM13.4075 10.6328L4.33427 5.43204C4.05223 5.27031 3.87693 4.96866 3.87693 4.6448C3.87693 4.45711 3.9341 4.27693 4.04238 4.12311L5.01576 2.74196L14.6099 8.24069L13.4075 10.6328ZM14.5973 9.98978L15.4089 8.37523L16.2701 7.94749C16.2744 7.99476 16.2831 8.04368 16.2831 8.0894C16.2831 9.06523 15.5458 9.86521 14.5973 9.98978ZM15.1331 7.65108L5.46224 2.10844L6.07929 1.23295C6.28337 0.943327 6.61728 0.770295 6.97318 0.770295C7.16287 0.770295 7.35027 0.819583 7.51496 0.913212L17.4003 6.52507L15.1331 7.65108Z" fill="#9FC460"/>
<path d="M12.794 9.24348C13.0081 9.24348 13.1817 9.07104 13.1817 8.85831C13.1817 8.64559 13.0081 8.47314 12.794 8.47314C12.5798 8.47314 12.4062 8.64559 12.4062 8.85831C12.4062 9.07104 12.5798 9.24348 12.794 9.24348Z" fill="#9FC460"/>
</svg>
