<svg width="40" height="40" viewBox="0 0 40 40" fill="none" xmlns="http://www.w3.org/2000/svg">
<path d="M38.5958 10.369L35.263 3.70266C35.2629 3.70234 35.2627 3.70195 35.2625 3.70164C35.2504 3.67742 35.2361 3.65414 35.221 3.63133C35.2161 3.62391 35.211 3.6168 35.2058 3.60961C35.1944 3.59391 35.1822 3.57867 35.1693 3.56383C35.1637 3.55734 35.1584 3.55055 35.1525 3.54422C35.1357 3.52625 35.1175 3.50914 35.0984 3.49289C35.0894 3.48523 35.08 3.47844 35.0706 3.47125C35.0631 3.46555 35.0561 3.45937 35.0483 3.45398C35.0433 3.45047 35.038 3.44766 35.0329 3.44438C35.023 3.43781 35.013 3.43148 35.0028 3.42547C34.9862 3.4157 34.9693 3.40703 34.9522 3.39883C34.9456 3.3957 34.9393 3.39203 34.9326 3.38914C34.908 3.37844 34.883 3.36961 34.8577 3.36203C34.851 3.36 34.8442 3.35844 34.8374 3.35664C34.8156 3.35086 34.7937 3.34617 34.7717 3.34266C34.7657 3.34172 34.76 3.34055 34.754 3.33977C34.7261 3.33609 34.6982 3.33406 34.6703 3.33391C34.669 3.33391 34.6679 3.33367 34.6666 3.33367H14.0077V2C14.0077 1.77664 13.8957 1.56797 13.7097 1.44469L11.7017 0.111328C11.5923 0.0386719 11.4643 0 11.333 0H8.66637C8.53504 0 8.40566 0.0392969 8.29637 0.112031L6.29637 1.44531C6.11105 1.5693 5.99973 1.77734 5.99973 2V3.33336H3.99957C3.6316 3.33336 3.33293 3.63203 3.33293 4V10.6666C3.33293 11.0346 3.6316 11.3333 3.99957 11.3333H5.99965V12.0113C5.99965 12.0115 5.99965 12.0116 5.99965 12.0118V38.6666H1.99965C1.63168 38.6666 1.33301 38.9653 1.33301 39.3333C1.33301 39.7013 1.63168 40 1.99965 40H6.66629H13.341H17.9996C18.3676 40 18.6663 39.7013 18.6663 39.3334C18.6663 38.9654 18.3676 38.6667 17.9996 38.6667H14.0076V22.6737C14.0076 22.6714 14.008 22.6691 14.008 22.6667C14.008 22.6644 14.0076 22.662 14.0076 22.6597V11.3337H29.3329V15.3334C29.3329 15.7013 29.6316 16 29.9996 16C30.7349 16 31.3329 16.598 31.3329 17.3334C31.3329 18.0687 30.735 18.6667 29.9996 18.6667C29.2642 18.6667 28.6662 18.0688 28.6662 17.3334C28.6662 16.9654 28.3675 16.6667 27.9996 16.6667C27.6316 16.6667 27.3329 16.9654 27.3329 17.3334C27.333 18.804 28.529 20 29.9996 20C31.4703 20 32.6663 18.804 32.6663 17.3334C32.6663 16.0928 31.8153 15.0477 30.6663 14.751V11.3337H37.9997C38.2304 11.3337 38.445 11.2137 38.5664 11.0177C38.6885 10.821 38.6991 10.5757 38.5958 10.369ZM12.6743 10.7255L11.1616 9.66664L12.6743 8.60773V10.7255ZM12.2259 12.0384L10.0078 13.813L7.78207 12.0324L9.99965 10.4801L12.2259 12.0384ZM7.33301 26.6194V24.0472L8.94066 25.3333L7.33301 26.6194ZM10.0078 26.187L12.2741 28L10.0078 29.813L7.74137 28L10.0078 26.187ZM7.74145 22.6666L10.0078 20.8537L12.2741 22.6666L10.0078 24.4796L7.74145 22.6666ZM7.33301 21.2861V18.7139L8.94066 20L7.33301 21.2861ZM7.74137 17.3334L10.0078 15.5203L12.2741 17.3334L10.0078 19.1464L7.74137 17.3334ZM7.33301 15.9527V13.3805L8.94066 14.6666L7.33301 15.9527ZM7.33301 10.7199V8.61344L8.83762 9.66672L7.33301 10.7199ZM7.33301 29.3806L8.94066 30.6667L7.33301 31.9528V29.3806ZM10.0078 31.5204L12.3114 33.3633L10.0078 35.4366L7.7041 33.3633L10.0078 31.5204ZM11.0749 30.6667L12.6743 29.3872V31.9462L11.0749 30.6667ZM11.0749 25.3333L12.6743 24.0537V26.6128L11.0749 25.3333ZM11.0749 20L12.6743 18.7205V21.2795L11.0749 20ZM11.0749 14.6666L12.6743 13.3871V15.9462L11.0749 14.6666ZM12.6743 6.05883L11.1616 5L12.6743 3.94109V6.05883ZM12.171 7.33328L9.99965 8.85328L7.82832 7.33336L9.99965 5.81336L12.171 7.33328ZM7.33301 6.0532V3.94672L8.83762 5L7.33301 6.0532ZM9.01168 36.3332L7.33301 37.8441V34.8224L9.01168 36.3332ZM10.0078 37.2298L11.6043 38.6667H8.41113L10.0078 37.2298ZM11.0039 36.3332L12.6743 34.8298V37.8366L11.0039 36.3332ZM14.0078 5.0675L15.8207 7.33375L14.0078 9.6V5.0675ZM26.0614 4.66703H28.6207L27.3411 6.26648L26.0614 4.66703ZM26.4873 7.33344L24.6741 9.59969L22.8615 7.33391L24.6747 5.06766L26.4873 7.33344ZM22.0078 6.26664L20.7281 4.66703H23.2874L22.0078 6.26664ZM21.1539 7.33391L19.3414 9.59969L17.5282 7.33344L19.3407 5.06766L21.1539 7.33391ZM16.6746 6.26648L15.3949 4.66703H17.9542L16.6746 6.26648ZM16.6744 8.40078L17.9541 10.0004H15.3948L16.6744 8.40078ZM22.0078 8.40102L23.2874 10.0003H20.7282L22.0078 8.40102ZM27.3411 8.40078L28.6207 10.0004H26.0614L27.3411 8.40078ZM29.9679 9.55008L28.1947 7.33367L29.9681 5.11695L31.5196 7.33328L29.9679 9.55008ZM32.3329 8.49539L33.3864 10.0003H31.2794L32.3329 8.49539ZM31.2799 4.66703H33.386L32.3329 6.17141L31.2799 4.66703ZM8.86832 1.33336H11.1317L12.6423 2.33672L9.99965 4.18656L7.35988 2.33875L8.86832 1.33336ZM5.99957 10H4.66621V4.66664H5.99957V10ZM35.0132 10.0003L33.1464 7.33336L34.5704 5.29898L36.9211 10.0003H35.0132Z" fill="#E3CEA3"/>
<path d="M37.3328 21.3333H22.6662C22.2982 21.3333 21.9995 21.632 21.9995 22V39.3333C21.9995 39.7013 22.2982 40 22.6662 40H37.3328C37.7008 40 37.9994 39.7013 37.9994 39.3333V22C37.9995 21.632 37.7008 21.3333 37.3328 21.3333ZM31.333 38.6666H28.6663V36H31.333V38.6666ZM36.6662 38.6666H32.6663V35.3333C32.6663 34.9653 32.3676 34.6666 31.9997 34.6666H27.9997C27.6317 34.6666 27.333 34.9653 27.333 35.3333V38.6666H23.3329V22.6666H36.6662V38.6666H36.6662Z" fill="#E3CEA3"/>
<path d="M32.6664 28H33.9997C34.735 28 35.3331 27.402 35.3331 26.6666V25.3333C35.3331 24.598 34.7351 23.9999 33.9997 23.9999H32.6664C31.9311 23.9999 31.333 24.5979 31.333 25.3333V26.6666C31.3331 27.402 31.9311 28 32.6664 28ZM32.6664 25.3333H33.9997L34.0004 26.6667H32.6664V25.3333Z" fill="#E3CEA3"/>
<path d="M25.9999 28H27.3332C28.0685 28 28.6666 27.402 28.6666 26.6666V25.3333C28.6666 24.598 28.0686 23.9999 27.3332 23.9999H25.9999C25.2645 23.9999 24.6665 24.5979 24.6665 25.3333V26.6666C24.6666 27.402 25.2645 28 25.9999 28ZM25.9999 25.3333H27.3332L27.3339 26.6667H25.9999V25.3333Z" fill="#E3CEA3"/>
<path d="M32.6664 33.3334H33.9997C34.735 33.3334 35.3331 32.7354 35.3331 32V30.6666C35.3331 29.9313 34.7351 29.3333 33.9997 29.3333H32.6664C31.9311 29.3333 31.333 29.9313 31.333 30.6666V32C31.3331 32.7353 31.9311 33.3334 32.6664 33.3334ZM32.6664 30.6666H33.9997L34.0004 32H32.6664V30.6666Z" fill="#E3CEA3"/>
<path d="M25.9999 33.3334H27.3332C28.0685 33.3334 28.6666 32.7354 28.6666 32V30.6666C28.6666 29.9313 28.0686 29.3333 27.3332 29.3333H25.9999C25.2645 29.3333 24.6665 29.9313 24.6665 30.6666V32C24.6666 32.7353 25.2645 33.3334 25.9999 33.3334ZM25.9999 30.6666H27.3332L27.3339 32H25.9999V30.6666Z" fill="#E3CEA3"/>
</svg>
