<svg width="50" height="50" viewBox="0 0 50 50" fill="none" xmlns="http://www.w3.org/2000/svg">
<g clip-path="url(#clip0)">
<path d="M18.2074 23.3887C17.7922 24.5834 17.3776 25.7787 16.9623 26.9734C16.7433 27.605 17.7438 27.8765 17.9614 27.2491C18.3767 26.0544 18.7913 24.8591 19.2066 23.6644C19.4263 23.0328 18.4251 22.7613 18.2074 23.3887Z" fill="#E3CEA3"/>
<path d="M15.5432 37.34C17.5035 37.4195 18.9711 35.9312 19.1895 34.078C19.2081 33.9992 19.2199 33.9156 19.215 33.8209C19.222 33.6917 19.2026 33.5784 19.1667 33.4796C18.9207 31.7231 17.5609 30.2942 15.6883 30.2942C13.7723 30.2942 12.1616 31.9063 12.1616 33.8209C12.1609 35.6852 13.6838 37.2647 15.5432 37.34ZM17.4876 33.8209C17.3632 36.1267 13.889 36.1461 13.889 33.8209C13.8884 31.4937 17.3632 31.5145 17.4876 33.8209Z" fill="#E3CEA3"/>
<path d="M34.155 37.34C36.1153 37.4195 37.583 35.9312 37.8013 34.078C37.82 33.9992 37.8317 33.9156 37.8269 33.8209C37.8338 33.6917 37.8144 33.5784 37.7785 33.4796C37.5325 31.7231 36.1727 30.2942 34.3002 30.2942C32.3841 30.2942 30.7734 31.9063 30.7734 33.8209C30.7734 35.6852 32.2956 37.2647 34.155 37.34ZM36.0994 33.8209C35.9751 36.1267 32.5009 36.1461 32.5009 33.8209C32.5009 31.4937 35.9758 31.5145 36.0994 33.8209Z" fill="#E3CEA3"/>
<path d="M49.5888 21.7628C42.7364 17.6046 35.8847 13.4463 29.0324 9.28807C28.139 8.74566 27.2013 8.02359 26.1732 7.76102C24.4941 7.33193 23.1591 7.95726 21.7959 8.78504C18.0052 11.0853 14.2152 13.3855 10.4246 15.6858C7.08648 17.7117 3.7484 19.7376 0.410323 21.7628C-0.53907 22.3391 0.328097 23.833 1.28233 23.2547C7.95434 19.2056 14.6263 15.1572 21.2977 11.1081C22.066 10.6417 22.8392 10.0516 23.658 9.6757C25.3592 8.89422 26.4855 9.76346 27.8336 10.5816C31.6512 12.8984 35.4688 15.2152 39.2871 17.532C42.4303 19.4398 45.5735 21.3469 48.7174 23.2547C49.6696 23.833 50.5388 22.3398 49.5888 21.7628Z" fill="#E3CEA3"/>
<path d="M45.3963 42.3171C43.3179 42.3171 41.2395 42.3171 39.161 42.3171C39.2467 42.21 39.3269 42.0981 39.3925 41.9758C39.7705 41.2717 39.6502 40.3948 39.6461 39.6202C40.7689 39.2077 41.5767 38.1367 41.5767 36.8722V30.7703C41.5767 29.4678 40.7185 28.3733 39.5418 27.9898L36.4434 19.8564C35.9107 18.4593 34.3222 17.3641 32.8262 17.3641H17.1723C15.6763 17.3641 14.0871 18.4586 13.5544 19.8564L10.4567 27.9898C9.28002 28.3733 8.42183 29.4671 8.42183 30.7703V36.8722C8.42183 38.1644 9.26551 39.2513 10.4263 39.643C10.4194 40.4121 10.3061 41.2786 10.6806 41.9758C10.7463 42.0981 10.8264 42.21 10.9121 42.3171C10.6509 42.3171 10.389 42.3171 10.1278 42.3171C8.46537 42.3171 6.8022 42.3171 5.13903 42.3171C4.02726 42.3171 4.02588 44.0445 5.13903 44.0445C16.8952 44.0445 28.6514 44.0445 40.4075 44.0445C42.07 44.0445 43.7332 44.0445 45.3963 44.0445C46.5074 44.0445 46.5095 42.3171 45.3963 42.3171ZM36.6148 39.8089H37.9277C37.9698 40.4674 38.1115 41.4935 37.2712 41.4935C36.4324 41.4935 36.5727 40.466 36.6148 39.8089ZM15.1685 20.4714C15.449 19.7362 16.386 19.0908 17.1723 19.0908H32.8262C33.6132 19.0908 34.5495 19.7362 34.8293 20.4714L37.634 27.833H36.1152L34.2579 22.4634C33.7652 21.0387 32.1988 19.9227 30.6911 19.9227H19.3081C17.8004 19.9227 16.2333 21.038 15.7392 22.4614L13.8736 27.833H12.3645L15.1685 20.4714ZM34.2869 27.833H15.7019L17.3706 23.028C17.6256 22.2942 18.5307 21.6502 19.3081 21.6502H30.6911C31.4678 21.6502 32.3716 22.2942 32.6251 23.028L34.2869 27.833ZM10.1493 30.7696C10.1493 30.1028 10.6917 29.5604 11.3585 29.5604H38.64C39.3068 29.5604 39.8492 30.1028 39.8492 30.7696V36.8716C39.8492 37.5383 39.3068 38.0808 38.64 38.0808H11.3585C10.6917 38.0808 10.1493 37.5383 10.1493 36.8716V30.7696ZM12.8019 41.4935C11.9631 41.4935 12.1033 40.4667 12.1455 39.8089H13.4583C13.5012 40.4674 13.6421 41.4935 12.8019 41.4935ZM14.9232 41.9758C15.2707 41.3276 15.1975 40.5344 15.1802 39.8089H34.8936C34.8763 40.5351 34.8024 41.3283 35.1506 41.9758C35.2163 42.0981 35.2964 42.21 35.3821 42.3171C28.4855 42.3171 21.589 42.3171 14.6924 42.3171C14.7774 42.21 14.8575 42.0981 14.9232 41.9758Z" fill="#E3CEA3"/>
</g>
<defs>
<clipPath id="clip0">
<rect width="50" height="50" fill="white"/>
</clipPath>
</defs>
</svg>
