<svg width="18" height="18" viewBox="0 0 18 18" fill="none" xmlns="http://www.w3.org/2000/svg">
<path d="M7.38763 16.9916C3.56813 16.6431 0.687851 14.9003 0.687851 12.9376C0.687851 12.4788 0.843443 12.0251 1.15033 11.5891C1.26358 11.4282 1.2318 11.2009 1.07931 11.0813C0.926811 10.9619 0.71141 10.9954 0.598121 11.1563C0.201231 11.7202 0 12.3195 0 12.9376C0 14.134 0.775037 15.2755 2.18238 16.1518C3.50935 16.978 5.33694 17.5331 7.3284 17.7148C7.33848 17.7157 7.34849 17.7162 7.35843 17.7162C7.53496 17.7162 7.68519 17.5735 7.7007 17.3844C7.717 17.1848 7.57689 17.0089 7.38763 16.9916Z" fill="#9FC460"/>
<path d="M8.89089 17.0552L8.87039 17.0552C8.68044 17.0563 8.52729 17.2197 8.52833 17.4201C8.52936 17.6199 8.68313 17.7811 8.87222 17.7811C8.87284 17.7811 8.87349 17.7811 8.87411 17.7811L8.89086 17.781C9.08081 17.781 9.23478 17.6185 9.23478 17.4181C9.23478 17.2177 9.08084 17.0552 8.89089 17.0552Z" fill="#9FC460"/>
<path d="M17.1512 11.3695C17.3358 11.363 17.4835 11.2035 17.4835 11.0072C17.4835 10.8068 17.3296 10.6443 17.1396 10.6443H16.4468C16.2568 10.6443 16.1028 10.8068 16.1028 11.0072V11.7384C16.1028 11.9388 16.2568 12.1013 16.4468 12.1013C16.5448 12.1013 16.6331 12.0578 16.6957 11.9883C16.846 12.2995 16.922 12.6176 16.922 12.9377C16.922 14.9008 14.041 16.6437 10.2206 16.9919C10.0314 17.0092 9.89121 17.185 9.90754 17.3847C9.92302 17.5738 10.0732 17.7165 10.2498 17.7165C10.2597 17.7165 10.2697 17.716 10.2798 17.7151C12.2717 17.5336 14.0996 16.9785 15.4269 16.1522C16.8346 15.2759 17.6098 14.1343 17.6098 12.9377C17.6099 12.3978 17.4556 11.8708 17.1512 11.3695Z" fill="#9FC460"/>
<path d="M8.80389 3.61133C8.61394 3.61133 8.45996 3.77385 8.45996 3.97426V4.76648C8.45996 4.96689 8.61394 5.12941 8.80389 5.12941C8.99384 5.12941 9.14781 4.96689 9.14781 4.76648V3.97426C9.14781 3.77385 8.99384 3.61133 8.80389 3.61133Z" fill="#9FC460"/>
<path d="M14.7239 4.20291L8.97732 0.701719C8.87091 0.636862 8.7398 0.636862 8.63339 0.701719L2.88681 4.20291C2.7804 4.26774 2.71484 4.38758 2.71484 4.51722V11.5196C2.71484 11.6492 2.78036 11.7691 2.88681 11.8339L8.63339 15.3351C8.6866 15.3675 8.74596 15.3837 8.80535 15.3837C8.86475 15.3837 8.92411 15.3675 8.97732 15.3351L14.7239 11.8339C14.8303 11.7691 14.8959 11.6492 14.8959 11.5196V4.51722C14.8959 4.38758 14.8303 4.26774 14.7239 4.20291ZM8.46143 14.3921L3.74662 11.5196L4.07187 11.3214C4.23637 11.2212 4.29274 10.9992 4.19775 10.8256C4.10279 10.6521 3.89245 10.5925 3.72795 10.6928L3.40266 10.891V5.14607L8.11468 8.02012L7.52409 8.37993C7.35959 8.48018 7.30322 8.70211 7.39822 8.8757C7.46191 8.99213 7.57751 9.05724 7.69637 9.05724C7.7547 9.05724 7.81385 9.04153 7.86802 9.00854L8.46143 8.64702V14.3921ZM8.80535 6.32024C8.6154 6.32024 8.46143 6.48276 8.46143 6.68318V7.39319L3.74645 4.51733L8.46143 1.64466V2.0575C8.46143 2.25791 8.6154 2.42043 8.80535 2.42043C8.9953 2.42043 9.14928 2.25791 9.14928 2.0575V1.64466L13.8643 4.51733L9.14928 7.39319V6.68318C9.14928 6.48276 8.9953 6.32024 8.80535 6.32024ZM14.208 10.891L13.8827 10.6928C13.7182 10.5926 13.5079 10.6521 13.4129 10.8256C13.3179 10.9992 13.3743 11.2212 13.5388 11.3214L13.8641 11.5196L9.14928 14.3921V8.64702L9.74269 9.00854C9.79686 9.04153 9.85598 9.05724 9.91434 9.05724C10.0332 9.05724 10.1488 8.99213 10.2125 8.8757C10.3075 8.70211 10.2511 8.48018 10.0866 8.37993L9.49603 8.02012L14.208 5.14607V10.891Z" fill="#9FC460"/>
<path d="M12.3097 9.73433L11.6595 9.33822C11.495 9.23802 11.2847 9.2975 11.1897 9.47106C11.0947 9.64465 11.1511 9.86662 11.3156 9.96683L11.9657 10.3629C12.0199 10.3959 12.079 10.4116 12.1374 10.4116C12.2562 10.4116 12.3718 10.3465 12.4355 10.2301C12.5305 10.0565 12.4742 9.83457 12.3097 9.73433Z" fill="#9FC460"/>
<path d="M6.41991 9.47108C6.32492 9.29749 6.11461 9.23801 5.95011 9.33825L5.29995 9.73436C5.13545 9.8346 5.07908 10.0565 5.17408 10.2301C5.23777 10.3466 5.35336 10.4117 5.47223 10.4117C5.53056 10.4117 5.58971 10.3959 5.64388 10.363L6.29404 9.96685C6.45854 9.86661 6.5149 9.64467 6.41991 9.47108Z" fill="#9FC460"/>
</svg>
