<svg width="65" height="44" viewBox="0 0 65 44" fill="none" xmlns="http://www.w3.org/2000/svg">
<g clip-path="url(#clip0)">
<path d="M22.8482 37.3421H32.5257L28.7022 26.4431H30.5782L21.5821 0L12.5857 26.4431H14.4616L10.6382 37.3421H20.316V40.6959H14.1542V43.2281H29.0096V40.6959H22.8482V37.3421ZM14.21 34.8102L18.0334 23.9108H16.1218L21.5821 7.86188L27.0423 23.9108H25.1308L28.9542 34.8102H22.8482V22.7176H20.316V34.8102H14.21Z" fill="white"/>
</g>
<g clip-path="url(#clip1)">
<path d="M44.113 35.3369C44.9105 34.6173 46.6212 32.9729 48.3418 30.6728C51.44 26.5314 53.0774 22.2202 53.0774 18.2049C53.0774 14.1898 51.44 9.87863 48.3418 5.73695C46.0361 2.65526 43.7476 0.749645 43.6513 0.670163L42.841 0L42.0306 0.670163C41.9343 0.749645 39.6458 2.65526 37.3402 5.73695C34.242 9.87863 32.6045 14.1898 32.6045 18.2049C32.6045 22.2202 34.242 26.5314 37.3402 30.6728C39.0611 32.9729 40.7718 34.6173 41.5692 35.3369V40.6843H35.3798V43.2281H50.3025V40.6843H44.113V35.3369ZM35.1483 18.2049C35.1483 11.3545 40.7177 5.39065 42.8423 3.36532C44.9682 5.38736 50.534 11.337 50.534 18.2049C50.534 23.9402 46.6304 29.0531 44.113 31.7549V22.6246H41.5692V31.7602C39.0515 29.064 35.1483 23.957 35.1483 18.2049Z" fill="white"/>
</g>
<defs>
<clipPath id="clip0">
<rect width="43.2281" height="43.2281" fill="white"/>
</clipPath>
<clipPath id="clip1">
<rect width="43.2281" height="43.2281" fill="white" transform="translate(21.2065)"/>
</clipPath>
</defs>
</svg>
