<svg width="97" height="62" viewBox="0 0 97 62" fill="none" xmlns="http://www.w3.org/2000/svg">
<g clip-path="url(#clip0)">
<path d="M27.3821 38.9252C27.3119 38.7271 27.3238 38.514 27.4158 38.3227C27.5077 38.1313 27.6741 37.9736 27.8861 37.8768L24.8447 37.798C25.1952 37.9468 25.4805 38.436 25.3371 38.8664C25.214 39.2418 22.7534 45.7664 22.0871 47.5381C19.7394 45.3986 17.6061 42.8638 16.8588 41.6978L19.5845 38.8314C20.1117 38.2872 21.0733 37.7392 21.5701 37.5277L18.6923 37.3888C19.0428 37.5377 19.2036 38.0482 18.9371 38.3322L14.3358 43.2792V37.8993C14.3495 37.7342 14.4094 37.5743 14.5103 37.4336C14.6112 37.2928 14.7501 37.1753 14.9151 37.0911L12.0721 36.8233C12.3936 37.001 12.6992 37.3838 12.6992 37.5552V48.4952C12.6992 48.6666 12.3951 49.0507 12.0721 49.2271L14.9151 48.9694C14.7501 48.8852 14.6112 48.7676 14.5103 48.6269C14.4094 48.4861 14.3495 48.3263 14.3358 48.1611V44.3527L15.6176 43.0052C18.5142 46.7949 21.2355 48.9431 24.6564 49.9828L24.9461 49.8126C24.1938 49.3075 23.4798 48.7613 22.8084 48.1774L23.9163 45.0983L28.17 44.9732L29.2026 47.5118C29.3171 47.8608 28.968 48.2625 28.645 48.4351L31.4388 48.3163C31.1748 48.0899 30.9764 47.813 30.8595 47.508C30.8595 47.508 27.5009 39.2756 27.3821 38.9252ZM24.1785 44.3602L25.9338 39.4807L27.8731 44.2501L24.1785 44.3602ZM44.9993 61.6071L42.1447 61.6534C42.3347 61.5516 42.4795 61.3974 42.5556 61.2158C42.6318 61.0343 42.635 60.8358 42.5647 60.6525L39.6261 53.6861L36.8613 60.68C36.7926 60.8797 36.8029 61.0935 36.8905 61.2877C36.9781 61.4818 37.138 61.6452 37.345 61.7522L35.2087 61.851C35.5216 61.6108 35.6114 61.4219 35.7881 61.0428C35.7881 61.0428 39.0076 53.0981 39.1539 52.6927C39.2094 52.5029 39.1976 52.303 39.1202 52.119C39.0427 51.935 38.9031 51.7753 38.7194 51.6605L41.3264 51.568C40.9672 51.7168 40.7166 52.2536 40.8919 52.7153L44.3012 60.7963C44.4663 61.0891 44.6575 61.4582 44.9993 61.6071ZM72.6618 38.8727V47.7558C72.6755 47.9209 72.7354 48.0807 72.8363 48.2215C72.9372 48.3623 73.0761 48.4798 73.2411 48.564L70.3981 48.4389C70.7211 48.2612 71.0253 47.8784 71.0253 47.7057V42.2157L66.7672 42.2958V47.4843C66.7809 47.6494 66.8408 47.8092 66.9417 47.95C67.0426 48.0908 67.1815 48.2083 67.3466 48.2925L64.5035 48.2162C64.8265 48.0385 65.1307 47.6557 65.1307 47.4843V38.924C65.1307 38.7526 64.8265 38.3685 64.5035 38.1908L67.3466 38.1158C67.1815 38.1999 67.0426 38.3175 66.9417 38.4582C66.8408 38.599 66.7809 38.7588 66.7672 38.924V41.5639L71.0253 41.4838V38.9377C71.0253 38.7663 70.7211 38.3822 70.3981 38.2058L73.2411 38.0645C73.0763 38.1485 72.9375 38.2659 72.8366 38.4064C72.7357 38.5469 72.6757 38.7065 72.6618 38.8714V38.8727ZM84.8015 37.8205V48.5978C84.8152 48.7629 84.875 48.9227 84.9759 49.0635C85.0769 49.2043 85.2158 49.3218 85.3808 49.406L82.5364 49.1695C82.8579 48.9919 83.1635 48.609 83.1635 48.4364V37.9769C83.1635 37.8055 82.8593 37.4214 82.5364 37.2437L85.3794 37.0135C85.2148 37.0977 85.0763 37.2151 84.9756 37.3556C84.875 37.4962 84.8153 37.6557 84.8015 37.8205ZM97.002 50.6709L94.159 50.3056C94.4805 50.1279 94.7861 49.7451 94.7861 49.5724V39.1605C94.6152 39.452 94.453 39.7085 94.3371 39.8836C92.5992 42.5223 90.2153 46.2644 89.8749 46.9012C89.4241 47.7995 89.0843 48.7364 88.8611 49.6963L88.7163 49.6737V49.7163L87.7242 49.6112V37.589C87.7242 37.4176 87.42 37.0335 87.0971 36.8559L89.9401 36.5756C89.775 36.6598 89.6361 36.7773 89.5352 36.9181C89.4343 37.0589 89.3744 37.2187 89.3608 37.3838V46.2569C90.0849 45.037 92.1951 41.7441 93.6477 39.5471C94.2893 38.5762 94.7195 37.6941 94.7803 37.2387V36.8333C94.7803 36.6619 94.4762 36.2778 94.1532 36.1002L96.9962 35.7248C96.8312 35.809 96.6922 35.9265 96.5913 36.0673C96.4904 36.2081 96.4305 36.3679 96.4169 36.5331V49.8639C96.4314 50.0293 96.4923 50.1892 96.5942 50.3298C96.6961 50.4704 96.8361 50.5874 97.002 50.6709ZM48.5664 47.9709C49.7735 47.6914 50.8356 47.0675 51.5804 46.2006C53.0779 44.4578 53.369 42.6198 51.941 40.633C50.568 38.7338 47.3904 37.8255 44.8443 38.7201C42.8167 39.4344 41.7913 40.7682 41.3756 42.1844C40.9817 43.8847 41.4683 45.4449 42.6501 46.5734C44.0752 47.9384 46.507 48.4802 48.5664 47.9709ZM42.7732 41.465C43.0252 40.3065 43.7957 39.4345 45.4164 39.1767C46.7937 38.9578 47.9422 39.2693 48.9691 40.0025C50.9663 41.43 51.5847 43.0265 51.4167 44.6567C51.2299 45.4074 50.9822 45.8966 50.5361 46.3307C49.3138 47.5043 47.2818 47.6894 45.5569 46.7436C44.2534 46.0267 43.5669 45.1259 43.0687 44.0311C42.6841 43.2208 42.5819 42.3311 42.7747 41.4713L42.7732 41.465ZM37.9287 47.8896C36.9043 48.3048 35.7958 48.5428 34.6656 48.5903C34.2038 48.6097 33.741 48.5726 33.2912 48.4802C32.7915 48.3926 32.3614 48.2149 32.0645 47.8721C32.0456 47.849 32.0375 47.8206 32.0418 47.7925C32.0461 47.7644 32.0625 47.7388 32.0877 47.7207C32.5062 47.3842 32.7553 47.2203 33.184 46.8624C33.3268 47.1109 33.5273 47.3313 33.773 47.51C34.0187 47.6886 34.3043 47.8217 34.612 47.9009C34.9843 47.9822 36.0705 48.1586 36.9626 47.5255C38.1966 46.6497 38.2009 44.6479 36.8931 43.8109C36.2356 43.3905 35.2768 43.0878 34.4238 43.2742C34.1051 43.358 33.8213 43.4806 33.6576 43.7559C33.6576 43.2191 33.6576 42.7087 33.646 42.1869C33.7303 42.3029 33.8401 42.4034 33.9694 42.4826C34.0986 42.5618 34.2446 42.6182 34.3991 42.6486C34.8538 42.6546 35.3076 42.6126 35.7504 42.5235C36.1248 42.4676 36.4683 42.309 36.7302 42.0713C36.9921 41.8336 37.1584 41.5293 37.2045 41.2036C37.2962 40.7595 37.2502 40.3024 37.0713 39.8786C36.702 39.0891 35.9126 38.5311 34.8988 38.5562C34.3997 38.5726 33.9191 38.7235 33.5244 38.9878C33.1435 39.3456 32.9146 39.4107 32.7133 39.9287C32.7133 39.9362 32.6887 39.9387 32.6626 39.9499C32.6047 39.2993 32.6206 38.9703 32.5265 38.3234C32.7243 38.3544 32.9251 38.3686 33.1261 38.366C33.4056 38.3344 33.682 38.2851 33.9531 38.2183C34.9977 37.9258 36.1297 37.9703 37.1393 38.3435C37.5874 38.5077 37.9924 38.7486 38.3298 39.0516C39.4001 40.0087 39.3654 41.2661 38.2154 42.0981C37.8637 42.3367 37.48 42.5379 37.0727 42.6974C37.4145 42.8325 37.6752 42.9239 37.9243 43.034C39.3972 43.6896 40.1113 44.8356 39.7579 46.0905C39.5218 46.9388 38.8353 47.5093 37.9287 47.8896ZM57.4489 44.4252C56.4713 44.4252 54.2872 44.2138 54.2872 41.6415V39.1392C54.2872 38.9678 53.9831 38.5837 53.6601 38.406L56.5031 38.3297C56.3381 38.4139 56.1991 38.5314 56.0982 38.6722C55.9973 38.813 55.9375 38.9728 55.9238 39.1379V41.5026C55.9238 41.9242 56.1353 43.652 58.1658 43.652C59 43.652 59.5619 43.5081 59.937 43.3367V39.0604C59.937 38.889 59.6329 38.5049 59.3099 38.3272L62.153 38.2509C61.9879 38.3351 61.849 38.4526 61.7481 38.5934C61.6472 38.7341 61.5873 38.894 61.5736 39.0591V47.3429C61.5873 47.508 61.6472 47.6679 61.7481 47.8086C61.849 47.9494 61.9879 48.0669 62.153 48.1511L59.3099 48.0886C59.6315 47.9109 59.937 47.528 59.937 47.3566V43.9886C59.2534 44.2826 58.4511 44.4252 57.4503 44.4252H57.4489ZM77.379 41.9405V38.3672C77.3926 38.2021 77.4525 38.0423 77.5534 37.9015C77.6543 37.7607 77.7932 37.6432 77.9583 37.559L75.1153 37.7367C75.4382 37.9143 75.7424 38.2972 75.7424 38.4686V47.9397C75.7424 48.1111 75.4382 48.4952 75.1153 48.6728L77.9583 48.8405C77.9394 48.833 77.9235 48.8217 77.9061 48.813C78.6129 48.873 79.5775 48.9518 80.0482 48.9756C80.8418 49.0156 82.4871 48.2337 82.3539 46.1918C82.2047 43.8785 78.7389 42.3971 77.3804 41.9405H77.379ZM80.5826 46.9838C80.4537 47.6094 79.7266 48.29 78.5825 48.2112C78.261 48.1886 77.7367 48.1436 77.3862 48.1123C77.3813 48.0862 77.3784 48.0599 77.3775 48.0335V42.5786C78.0191 42.8863 79.0706 43.4544 79.6803 44.0036C80.9345 45.1246 80.7057 46.3908 80.584 46.9851L80.5826 46.9838ZM53.6442 59.7667L55.0027 60.9803C53.4907 62.4053 50.6969 61.9036 50.0857 61.7585C49.4311 61.6034 48.7591 61.5098 48.0813 61.4795C47.4331 61.4708 46.7849 61.4971 46.1405 61.5583C46.376 61.2238 46.5045 60.8412 46.5127 60.4498V52.2085C46.5127 52.0371 46.2086 51.653 45.8856 51.4766L52.2697 51.4841C52.5385 51.4961 52.8035 51.4262 53.0185 51.2865L54.0425 52.9354L53.8136 53.0606C53.8136 53.0606 53.004 52.1848 51.3095 52.1848H48.187C48.187 52.1935 48.187 52.2023 48.187 52.211V54.8497H50.6578C50.9852 54.8553 51.3086 54.7863 51.5953 54.6497C51.8821 54.5131 52.1222 54.3137 52.2915 54.0715V56.2472C52.0163 55.9832 51.4225 55.5078 50.6578 55.5078H48.1841V60.8051C48.5411 60.8034 48.8977 60.8277 49.25 60.8777C49.586 60.9177 51.2965 61.0753 52.2277 60.9039C53.159 60.7325 53.4327 60.1895 53.6471 59.7667H53.6442ZM63.6679 57.8899C63.6679 57.8899 64.3674 58.6131 64.1893 59.3075C64.0937 59.6828 63.7664 59.9668 63.4825 60.1532C63.2529 60.6482 62.8707 61.0794 62.3774 61.3999C61.8841 61.7204 61.2985 61.9179 60.6844 61.9712C59.4635 62.0963 58.1498 61.8385 56.9434 60.5861C55.737 59.3338 54.7825 57.153 55.5965 54.5907C56.4293 51.9633 59.1477 51.4441 60.2426 51.4178C60.9774 51.4069 61.7047 51.5472 62.3644 51.8269C62.7149 51.9846 63.1132 52.1297 63.4941 52.0772L63.6317 52.2623L61.8474 53.6736C61.7257 53.2645 61.3289 52.1723 59.8473 52.1723C58.3656 52.1723 57.5575 52.8454 57.2128 54.2767C56.6987 56.4211 57.1853 58.5155 58.1976 59.7441C59.0666 60.8001 59.8777 61.1291 60.8393 61.1692C61.6359 61.2017 62.3282 60.9189 62.8467 60.1795C62.6526 59.9118 62.3905 59.4439 62.5078 58.9872C62.6845 58.2903 63.6722 57.8887 63.6722 57.8887L63.6679 57.8899ZM90.8134 35.7449C90.8134 35.7449 90.5382 34.3836 91.3449 33.4303C92.1516 32.4769 93.7375 32.293 93.7375 32.293C93.7375 32.293 94.0127 33.6542 93.206 34.6076C92.3993 35.5609 90.8163 35.7474 90.8163 35.7474L90.8134 35.7449ZM18.4345 49.5511C18.4345 49.5511 18.0145 50.8561 16.8312 51.4203C16.0535 51.7957 15.1411 51.7506 14.6052 51.6793C13.6044 52.126 11.4856 52.6802 9.33194 52.6802C6.68299 52.6802 4.33241 52.0547 2.33085 49.7551C0.440819 47.5818 -0.901757 43.1854 0.737721 38.8026C2.55824 33.9507 6.54686 33.0474 8.49483 33.0474C11.332 33.0474 11.474 34.1484 13.6059 34.256L13.7145 34.4662L11.3132 36.433C11.1785 35.6648 10.492 33.8056 8.39054 33.8056C6.28906 33.8056 4.35123 35.3658 3.39245 37.9894C2.32216 40.9196 2.61906 44.9382 4.30054 47.8646C5.59532 50.1166 7.43322 51.1301 9.11759 51.5517C10.1662 51.8132 12.2257 51.8407 14.262 51.314C14.456 50.8974 14.9108 50.1279 15.7494 49.7288C16.9283 49.162 18.4345 49.5511 18.4345 49.5511Z" fill="#D2B887"/>
<path d="M53.3612 1.75904C53.7375 1.77517 54.0983 1.89338 54.3924 2.09684C54.1083 2.31459 53.7417 2.43485 53.3619 2.43485C52.9822 2.43485 52.6156 2.31459 52.3315 2.09684C52.6251 1.89362 52.9854 1.77543 53.3612 1.75904ZM55.8813 3.22912C55.8813 3.22912 56.0087 2.77621 55.7611 2.44466C55.5134 2.11311 54.9833 2.02678 54.9833 2.02678C54.9833 2.02678 54.8559 2.47969 55.1035 2.81124C55.3512 3.14279 55.8813 3.22912 55.8813 3.22912ZM53.018 2.80874C52.7995 2.9398 52.642 3.13353 52.5733 3.35549C52.6997 3.39326 52.8341 3.40699 52.9672 3.39574C53.1003 3.38449 53.2291 3.34852 53.3446 3.2903C53.4601 3.23208 53.5597 3.15299 53.6366 3.05842C53.7135 2.96386 53.7658 2.85607 53.7899 2.74243C53.5318 2.68474 53.2583 2.70778 53.018 2.80749V2.80874ZM48.5007 2.56727C49.0018 2.73992 49.5667 2.53974 49.5667 2.53974C49.5667 2.53974 49.3161 2.05806 48.815 1.8854C48.3139 1.71275 47.7491 1.91293 47.7491 1.91293C47.7491 1.91293 47.9996 2.39461 48.5007 2.56727ZM45.9474 2.83376C45.9762 2.57731 45.9043 2.31993 45.7432 2.1031C45.6209 2.17762 45.5171 2.27245 45.4378 2.38204C45.3585 2.49163 45.3053 2.61378 45.2813 2.74134C45.2573 2.8689 45.263 2.99932 45.298 3.12497C45.3331 3.25061 45.3967 3.36896 45.4854 3.47309C45.7178 3.31113 45.8805 3.08642 45.9474 2.83501V2.83376ZM44.7887 2.56977C44.7887 2.56977 45.1059 2.17191 45.0219 1.75153C44.9379 1.33115 44.4875 1.04964 44.4875 1.04964C44.4875 1.04964 44.1703 1.4475 44.2543 1.86788C44.3383 2.28827 44.7887 2.56977 44.7887 2.56977ZM44.5903 4.02109C44.7298 3.75943 44.7453 3.46102 44.6336 3.1896C44.5218 2.91818 44.2916 2.69528 43.9922 2.56852C43.8526 2.83018 43.8371 3.12859 43.9489 3.40001C44.0607 3.67143 44.2908 3.89433 44.5903 4.02109ZM46.14 4.92316C46.1508 4.80259 46.1326 4.6814 46.0865 4.56722C46.0404 4.45304 45.9674 4.34834 45.8722 4.25972C45.7769 4.1711 45.6615 4.10048 45.5331 4.0523C45.4047 4.00413 45.2662 3.97944 45.1262 3.9798C45.1154 4.10036 45.1336 4.22156 45.1797 4.33574C45.2258 4.44992 45.2987 4.55462 45.394 4.64324C45.4892 4.73186 45.6047 4.80248 45.7331 4.85065C45.8615 4.89883 46 4.92352 46.14 4.92316ZM43.5026 3.24413C43.5134 3.12357 43.4952 3.00238 43.4491 2.8882C43.403 2.77402 43.3301 2.66932 43.2348 2.5807C43.1396 2.49208 43.0241 2.42145 42.8957 2.37328C42.7673 2.3251 42.6288 2.30042 42.4888 2.30078C42.478 2.42134 42.4962 2.54253 42.5423 2.65671C42.5884 2.77089 42.6614 2.87559 42.7566 2.96421C42.8519 3.05283 42.9673 3.12346 43.0957 3.17163C43.2241 3.21981 43.3626 3.24449 43.5026 3.24413ZM43.1188 4.17498C43.5533 4.29383 44.0182 4.07989 44.0182 4.07989C44.0182 4.07989 43.7778 3.67452 43.3419 3.55692C42.9059 3.43931 42.4425 3.652 42.4425 3.652C42.4425 3.652 42.6829 4.05737 43.1188 4.17498ZM44.9031 6.63971C45.0055 6.52675 45.0802 6.39691 45.1224 6.25815C45.1647 6.1194 45.1736 5.97465 45.1488 5.83278C45.124 5.69091 45.0659 5.55492 44.9781 5.43314C44.8903 5.31136 44.7746 5.20636 44.6381 5.12459C44.5355 5.23748 44.4607 5.36731 44.4183 5.5061C44.376 5.64489 44.3669 5.78969 44.3918 5.93161C44.4166 6.07353 44.4748 6.20956 44.5627 6.33134C44.6506 6.45311 44.7665 6.55806 44.9031 6.63971ZM45.5636 7.14017C45.5284 7.37716 45.5828 7.61762 45.7185 7.82579C45.9419 7.68102 46.0937 7.46875 46.1436 7.23145C46.1936 6.99414 46.138 6.74929 45.9879 6.54588C45.7764 6.69961 45.6277 6.90793 45.5636 7.14017ZM46.0067 8.17861C45.9114 8.41691 45.9114 8.67597 46.0067 8.91428C46.1418 8.8667 46.2645 8.79649 46.3679 8.7077C46.4713 8.61891 46.5533 8.5133 46.6092 8.39696C46.6651 8.28063 46.6938 8.15588 46.6935 8.02993C46.6933 7.90397 46.6641 7.77931 46.6078 7.66314C46.3443 7.77266 46.1311 7.95553 46.0024 8.18236L46.0067 8.17861ZM51.4234 10.7459C51.3799 11.1963 51.7724 11.593 51.7724 11.593C51.7724 11.593 52.2344 11.2577 52.2779 10.806C52.3213 10.3543 51.9288 9.95897 51.9288 9.95897C51.9288 9.95897 51.4668 10.2943 51.4219 10.7459H51.4234ZM55.0427 8.51141C55.0484 8.23456 54.9464 7.96407 54.753 7.74322C54.6299 7.83221 54.5284 7.9414 54.4544 8.06448C54.3804 8.18756 54.3353 8.32209 54.3219 8.4603C54.3084 8.59851 54.3268 8.73765 54.3759 8.86969C54.4251 9.00173 54.504 9.12404 54.6082 9.22956C54.8419 9.03885 54.9948 8.78602 55.0427 8.51141ZM54.824 5.89403C54.5754 5.71973 54.2664 5.62238 53.9463 5.61754C53.9521 5.75607 53.9896 5.89225 54.0566 6.01821C54.1236 6.14417 54.2189 6.25741 54.3368 6.3514C54.4548 6.44539 54.5931 6.51826 54.7438 6.56581C54.8946 6.61337 55.0547 6.63466 55.215 6.62845C55.1831 6.35284 55.0455 6.09434 54.824 5.89403ZM53.6103 5.83648C53.6089 5.55987 53.5003 5.29164 53.3018 5.07454C53.1814 5.16619 53.0831 5.27755 53.0127 5.40219C52.9424 5.52683 52.9013 5.66228 52.8918 5.80071C52.8824 5.93915 52.9048 6.07782 52.9578 6.20873C53.0108 6.33963 53.0933 6.46018 53.2005 6.56339C53.4271 6.36735 53.5714 6.11149 53.6103 5.83648ZM57.3962 6.01665C57.0336 6.02642 56.6864 6.14589 56.4154 6.3542C56.1443 6.56252 55.9666 6.84645 55.9131 7.15643C56.2757 7.14666 56.6229 7.02719 56.8939 6.81887C57.165 6.61056 57.3427 6.32663 57.3962 6.01665ZM56.0131 7.85331C55.8682 8.12356 56.0333 8.45636 56.0333 8.45636C56.0333 8.45636 56.436 8.35126 56.5822 8.08102C56.7285 7.81078 56.562 7.47797 56.562 7.47797C56.562 7.47797 56.1593 7.58307 56.0131 7.85331ZM58.885 4.86685C58.9629 4.61425 58.9472 4.34692 58.8401 4.10241C58.5777 4.23755 58.3812 4.45072 58.2877 4.702C58.1941 4.95327 58.2098 5.2254 58.3318 5.4674C58.5842 5.32256 58.7777 5.11296 58.885 4.86811V4.86685ZM60.0133 4.5866C60.1898 4.41958 60.2866 4.20097 60.2841 3.97479C60.2841 3.97479 59.8163 3.95478 59.5339 4.17998C59.3577 4.34713 59.2614 4.56575 59.2645 4.79179C59.2645 4.79179 59.7323 4.81181 60.0133 4.5866ZM59.6917 6.09672C59.6511 6.32003 59.7096 6.54837 59.8554 6.73605C59.8554 6.73605 60.258 6.52961 60.3493 6.20682C60.39 5.98311 60.3316 5.75436 60.1856 5.56624C60.1856 5.56624 59.783 5.77268 59.6917 6.09547V6.09672ZM61.2052 8.54644C61.2052 8.54644 61.2907 8.94305 61.6107 9.12822C61.8397 9.23782 62.1082 9.26865 62.3624 9.21455C62.3624 9.21455 62.277 8.81669 61.9569 8.63277C61.7279 8.52317 61.4594 8.49234 61.2052 8.54644ZM62.5681 10.3531C62.9779 10.3981 63.3444 10.0953 63.3444 10.0953C63.3444 10.0953 63.0446 9.72001 62.6347 9.67622C62.2248 9.63243 61.8584 9.93395 61.8584 9.93395C61.8584 9.93395 62.1582 10.3093 62.5681 10.3531ZM63.4863 10.8848C63.2826 10.7583 63.0314 10.7025 62.7824 10.7284C62.7824 10.7284 62.8143 11.1138 63.0953 11.3202C63.2988 11.4468 63.5501 11.5026 63.7991 11.4766C63.7991 11.4766 63.7673 11.0913 63.4863 10.8848ZM57.5555 10.4757C57.2477 10.3493 56.9019 10.309 56.5663 10.3606C56.2498 10.4411 55.9742 10.6117 55.7842 10.8448C56.092 10.9713 56.4379 11.0115 56.7734 10.9599C57.0899 10.8794 57.3656 10.7087 57.5555 10.4757ZM57.0834 13.6373C57.6279 13.6961 58.0972 13.3721 58.0972 13.3721C58.0972 13.3721 57.6887 12.9517 57.1442 12.8929C56.5996 12.8341 56.1304 13.1581 56.1304 13.1581C56.1304 13.1581 56.5388 13.5785 57.0834 13.6373ZM57.751 11.588C58.0442 11.5139 58.2996 11.356 58.4752 11.14C58.1912 11.0235 57.8723 10.9863 57.5627 11.0337C57.2696 11.1079 57.0144 11.2658 56.8386 11.4816C57.1225 11.5983 57.4415 11.6355 57.751 11.588ZM58.704 12.3023C58.9935 12.314 59.2786 12.2384 59.5107 12.0884C59.3043 11.9011 59.0337 11.7761 58.7388 11.7318C58.4493 11.7201 58.1641 11.7957 57.9321 11.9458C58.1382 12.1324 58.4083 12.257 58.7025 12.3011L58.704 12.3023ZM61.9714 12.8428C61.7124 12.9894 61.5228 13.2114 61.4369 13.4684C61.4369 13.4684 61.9627 13.5785 62.3682 13.3808C62.6278 13.2345 62.818 13.0125 62.9041 12.7553C62.9041 12.7553 62.3783 12.6452 61.9728 12.8428H61.9714ZM59.8728 13.7824C59.3514 13.9138 59.0704 14.3755 59.0704 14.3755C59.0704 14.3755 59.6353 14.6257 60.1566 14.4918C60.678 14.358 60.959 13.8988 60.959 13.8988C60.959 13.8988 60.3942 13.6486 59.8728 13.7824ZM61.854 14.6107C62.1614 14.5171 62.4222 14.3351 62.5927 14.0952C62.284 13.9793 61.9408 13.9509 61.6122 14.0139C61.3048 14.1075 61.0441 14.2895 60.8736 14.5294C61.1822 14.6453 61.5255 14.6737 61.854 14.6107ZM62.7085 14.8997C62.4416 14.8722 62.1724 14.932 61.954 15.0674C61.954 15.0674 62.219 15.4102 62.6072 15.4777C62.8736 15.5049 63.1422 15.4451 63.3603 15.3101C63.3603 15.3101 63.0952 14.9673 62.7071 14.8997H62.7085ZM62.3508 16.1221C62.3624 16.3383 62.4613 16.5441 62.6304 16.7038C62.8235 16.8322 63.0655 16.8929 63.3081 16.874C63.2966 16.6578 63.1977 16.452 63.0286 16.2922C62.8354 16.164 62.5935 16.1033 62.3508 16.1221ZM61.1719 16.59C60.9952 16.9153 61.1951 17.3031 61.1951 17.3031C61.1951 17.3031 61.6817 17.1643 61.8598 16.839C62.038 16.5137 61.8367 16.1258 61.8367 16.1258C61.8367 16.1258 61.35 16.2647 61.1719 16.59ZM56.869 15.1049C56.869 15.1049 56.2636 15.1825 55.9363 15.5403C55.609 15.8981 55.6828 16.3998 55.6828 16.3998C55.6828 16.3998 56.2882 16.3222 56.6156 15.9644C56.9429 15.6066 56.8676 15.1049 56.8676 15.1049H56.869ZM60.329 16.0583C60.1113 16.1339 59.9324 16.2747 59.825 16.4549C60.0451 16.5412 60.2924 16.5615 60.5274 16.5124C60.7451 16.4367 60.924 16.296 61.0314 16.1158C60.8113 16.0294 60.564 16.0092 60.329 16.0583ZM54.4214 16.1033C54.6619 16.1083 54.8975 16.0436 55.0905 15.9194C55.2579 15.7765 55.3607 15.5865 55.3801 15.3839C55.1396 15.3787 54.9039 15.4435 54.711 15.5678C54.5433 15.711 54.4405 15.9015 54.4214 16.1045V16.1033ZM59.5991 12.8791C59.4278 12.7357 59.2101 12.6406 58.9748 12.6064C58.7442 12.5935 58.5151 12.6467 58.3231 12.7578C58.4944 12.9012 58.7121 12.9963 58.9473 13.0305C59.1779 13.0434 59.407 12.9902 59.5991 12.8791ZM57.8814 8.18236C58.1676 8.09359 58.4133 7.92782 58.5823 7.70943C58.7149 7.48166 58.7518 7.22117 58.6866 6.97252C58.4004 7.06137 58.1548 7.22712 57.9856 7.44545C57.8534 7.67334 57.8171 7.93386 57.8828 8.18236H57.8814ZM59.2544 9.61741C59.5219 9.56056 59.7562 9.42132 59.9133 9.22581C59.6755 9.09183 59.3923 9.03101 59.1095 9.05315C58.842 9.11011 58.6078 9.24933 58.4505 9.44476C58.6883 9.57882 58.9716 9.63966 59.2544 9.61741ZM57.5642 8.64528C57.2788 8.82923 57.072 9.0897 56.9762 9.38595C57.3437 9.40751 57.71 9.33156 58.0262 9.16826C58.3111 8.98418 58.5174 8.72371 58.6128 8.42758C58.2457 8.40636 57.88 8.48231 57.5642 8.64528ZM59.602 5.37106C59.602 5.37106 59.0096 5.38483 58.6258 5.6926C58.3861 5.90776 58.2402 6.18811 58.213 6.48582C58.213 6.48582 58.8068 6.47206 59.1892 6.16428C59.429 5.94918 59.5749 5.6688 59.602 5.37106ZM42.8364 8.91803C42.8156 9.16952 42.8931 9.41976 43.0566 9.62867C43.1738 9.55297 43.2724 9.45788 43.3467 9.34894C43.421 9.23999 43.4695 9.11936 43.4893 8.99408C43.5091 8.86879 43.4999 8.74135 43.4622 8.61918C43.4244 8.49701 43.3589 8.38255 43.2695 8.28245C43.0461 8.44612 42.893 8.67002 42.835 8.91803H42.8364ZM39.6371 6.10798C39.704 5.99545 39.7443 5.87256 39.7557 5.74646C39.7671 5.62036 39.7493 5.49356 39.7035 5.37342C39.6577 5.25329 39.5847 5.14222 39.4888 5.04666C39.3928 4.95111 39.2759 4.87298 39.1447 4.81681C39.0778 4.92934 39.0375 5.05223 39.0261 5.17833C39.0147 5.30443 39.0325 5.43123 39.0783 5.55137C39.1241 5.6715 39.1971 5.78257 39.293 5.87812C39.389 5.97368 39.5059 6.05181 39.6371 6.10798ZM37.8992 9.0006C37.8992 9.0006 37.8992 8.47513 37.5342 8.12481C37.2707 7.90425 36.9288 7.76675 36.5638 7.73446C36.5638 7.73446 36.5638 8.26118 36.9288 8.61025C37.1923 8.83082 37.5341 8.96832 37.8992 9.0006ZM37.2011 9.29212C37.2524 9.50393 37.3839 9.69497 37.5747 9.83511C37.7834 9.95257 38.0321 10.0055 38.2801 9.98525C38.2287 9.77343 38.0973 9.5824 37.9064 9.44226C37.6976 9.32489 37.4491 9.27197 37.2011 9.29212ZM37.5907 12.7227C37.4084 12.5743 37.1739 12.4827 36.9244 12.4625C36.6759 12.4698 36.4375 12.5496 36.2481 12.689C36.4305 12.8373 36.6649 12.9288 36.9143 12.9492C37.1629 12.942 37.4014 12.8622 37.5907 12.7227ZM41.1144 9.63368C40.865 9.58636 40.6043 9.61834 40.3801 9.72376C40.4996 9.92041 40.6962 10.0739 40.9348 10.1567C41.1846 10.2041 41.4458 10.1721 41.6705 10.0666C41.5506 9.86977 41.3534 9.7163 41.1144 9.63368ZM39.8688 8.98809C39.6128 9.0026 39.371 9.09528 39.1867 9.24958C39.0353 9.42736 38.9633 9.6464 38.9839 9.86639C39.2405 9.85206 39.4828 9.75938 39.6675 9.6049C39.8189 9.42712 39.8909 9.20809 39.8703 8.98809H39.8688ZM40.1136 11.2977C39.9236 11.4447 39.8013 11.6459 39.7689 11.8645C40.0212 11.8941 40.2775 11.8463 40.4931 11.7293C40.683 11.5823 40.8054 11.3811 40.8378 11.1626C40.5855 11.133 40.3293 11.1808 40.1136 11.2977ZM45.3275 13.1131C45.3275 13.1131 45.3014 12.6927 44.99 12.4612C44.6787 12.2298 44.1993 12.2711 44.1993 12.2711C44.1993 12.2711 44.2239 12.6915 44.5367 12.9242C44.8496 13.1569 45.3275 13.1131 45.3275 13.1131ZM36.9578 11.0324C36.9578 11.0324 36.6131 10.587 36.0888 10.4982C35.5645 10.4094 35.0605 10.7109 35.0605 10.7109C35.0605 10.7109 35.4052 11.1563 35.9295 11.2451C36.4538 11.334 36.9592 11.0324 36.9592 11.0324H36.9578ZM43.6808 18.0388C43.7015 17.7602 43.6138 17.4837 43.4317 17.2531C43.2264 17.0465 42.947 16.9051 42.638 16.8515C42.6175 17.1249 42.7015 17.3965 42.877 17.6247C43.0822 17.8313 43.3616 17.9727 43.6706 18.0263L43.6808 18.0388ZM38.38 17.1655C38.346 17.4361 38.4179 17.7088 38.5842 17.94C38.8293 17.7656 39.0013 17.5264 39.0737 17.2593C39.1076 16.9887 39.0357 16.7161 38.8695 16.4849C38.6244 16.6593 38.4524 16.8984 38.38 17.1655ZM37.3488 17.8912C37.2895 18.1141 37.3191 18.3477 37.4328 18.5543C37.659 18.4323 37.8317 18.2487 37.9238 18.0325C37.9832 17.8097 37.9536 17.576 37.8398 17.3694C37.6136 17.4914 37.4409 17.675 37.3488 17.8912ZM36.6102 17.0879C36.3571 17.1556 36.1377 17.2949 35.9874 17.4833C36.2227 17.5909 36.4927 17.6278 36.755 17.5884C37.008 17.5206 37.2273 17.3814 37.3778 17.193C37.1425 17.0854 36.8724 17.0484 36.6102 17.0879ZM35.8744 18.7269C36.1403 18.7178 36.3951 18.6324 36.5986 18.4842C36.778 18.316 36.8867 18.1005 36.9071 17.8724C36.6412 17.8816 36.3864 17.967 36.1829 18.1151C36.0035 18.2833 35.8948 18.4988 35.8744 18.7269ZM42.344 18.3353C42.4338 18.1388 42.444 17.9219 42.373 17.7198C42.2717 17.5284 42.0973 17.3729 41.8791 17.2794C41.7893 17.4758 41.7791 17.6928 41.8501 17.8949C41.9515 18.0863 42.1258 18.2417 42.344 18.3353ZM39.5647 18.4604C39.5074 18.666 39.533 18.8822 39.6371 19.0735C39.7473 19.0269 39.8454 18.9614 39.9254 18.881C40.0054 18.8007 40.0657 18.7071 40.1025 18.606C40.1393 18.5049 40.152 18.3984 40.1397 18.2929C40.1274 18.1875 40.0905 18.0852 40.0311 17.9925C39.8192 18.0985 39.6553 18.2635 39.5661 18.4604H39.5647ZM37.9962 13.0117C37.6854 13.0367 37.3923 13.1477 37.1605 13.3283C36.955 13.5292 36.8314 13.7828 36.8086 14.0502C37.1193 14.0252 37.4125 13.9142 37.6442 13.7336C37.8498 13.5327 37.9734 13.2791 37.9962 13.0117ZM37.9281 10.4194C37.6495 10.2626 37.3178 10.1916 36.9867 10.218C37.055 10.5006 37.2303 10.7554 37.4849 10.9424C37.7636 11.0991 38.0952 11.1701 38.4263 11.1438C38.3579 10.8613 38.1826 10.6064 37.9281 10.4194ZM38.9622 12.2961C38.9622 12.2961 38.6465 11.7656 38.0628 11.5817C37.4791 11.3978 36.8506 11.633 36.8506 11.633C36.8506 11.633 37.1678 12.1647 37.75 12.3474C38.3322 12.5301 38.9622 12.2961 38.9622 12.2961ZM46.2921 9.17702C45.9676 9.55236 46.0372 10.0653 46.0372 10.0653C46.0372 10.0653 46.6324 9.98274 46.9568 9.61241C47.2813 9.24207 47.2117 8.7241 47.2117 8.7241C47.2117 8.7241 46.6165 8.80668 46.2921 9.17702ZM51.1004 11.0963C50.8412 10.8142 50.487 10.6087 50.0866 10.5082C50.0478 10.8704 50.1619 11.2325 50.4078 11.5277C50.6538 11.8229 51.015 12.0314 51.4248 12.1147C51.4433 11.7541 51.3309 11.3976 51.1033 11.095L51.1004 11.0963ZM44.3499 8.50766C44.3499 8.50766 43.8705 8.8242 43.7894 9.28336C43.7083 9.74253 44.0544 10.1692 44.0544 10.1692C44.0544 10.1692 44.5324 9.85263 44.6149 9.39346C44.6975 8.93429 44.3499 8.50766 44.3499 8.50766ZM49.6203 2.90382C49.3958 3.10464 49.2569 3.36534 49.2263 3.64324C49.3875 3.65326 49.5495 3.63504 49.7023 3.58969C49.8552 3.54434 49.9959 3.47278 50.116 3.37931C50.2361 3.28585 50.3331 3.1724 50.4013 3.04576C50.4694 2.91912 50.5072 2.7819 50.5124 2.64234C50.1887 2.64133 49.8741 2.73529 49.6203 2.90883V2.90382ZM49.9302 4.5353C50.0949 4.29736 50.1603 4.01787 50.1156 3.74334C49.9566 3.76406 49.8041 3.8126 49.6675 3.88599C49.531 3.95938 49.4132 4.05608 49.3214 4.17016C49.2296 4.28424 49.1658 4.4133 49.1337 4.54945C49.1017 4.68559 49.1021 4.82596 49.1351 4.96194C49.4486 4.90214 49.7292 4.75162 49.9302 4.5353ZM51.1453 4.70546C51.1449 4.42768 51.0345 4.15838 50.8325 3.94227C50.7081 4.03056 50.606 4.13989 50.5323 4.26355C50.4587 4.38721 50.4151 4.52257 50.4042 4.66132C50.3934 4.80007 50.4155 4.93927 50.4692 5.07036C50.5229 5.20145 50.6071 5.32167 50.7166 5.42361C50.9527 5.23398 51.1061 4.97997 51.1511 4.70421L51.1453 4.70546ZM48.3168 7.3391C48.1798 7.55712 48.1486 7.81323 48.23 8.05112C48.3115 8.28901 48.499 8.48922 48.7513 8.60775C48.8883 8.38972 48.9195 8.13362 48.838 7.89573C48.7566 7.65784 48.5691 7.45762 48.3168 7.3391ZM49.3567 6.05168C49.6913 5.94864 49.9807 5.75849 50.1851 5.50743C49.8536 5.39762 49.4908 5.37927 49.1467 5.45489C48.9167 5.52046 48.7078 5.6319 48.5369 5.78019C48.6391 5.61019 48.7011 5.42433 48.7194 5.23344C48.7313 4.93242 48.645 4.63458 48.4703 4.37391C48.2564 4.6115 48.1243 4.89641 48.0894 5.1959C48.0787 5.36157 48.1017 5.52758 48.1575 5.68635C48.0338 5.58124 47.889 5.49644 47.7302 5.43612C47.3975 5.32812 47.0342 5.31194 46.6903 5.38983C46.8602 5.66079 47.1234 5.87942 47.4435 6.0154C47.6217 6.07867 47.8127 6.11098 48.0054 6.11048C47.8418 6.19971 47.7064 6.32267 47.6115 6.46831C47.481 6.72078 47.4544 7.00422 47.5362 7.27154C47.8358 7.17981 48.0909 7.0035 48.2603 6.77108C48.3046 6.697 48.3363 6.61778 48.3544 6.53587C48.3919 6.65102 48.4587 6.75748 48.55 6.8474C48.8657 7.14642 49.4378 7.14142 49.4378 7.14142C49.4378 7.14142 49.4986 6.64972 49.1829 6.3507C48.9899 6.1896 48.739 6.09029 48.4718 6.0692V6.06044C48.7579 6.13263 49.0616 6.13523 49.3494 6.06794L49.3567 6.05168ZM42.1282 16.7651C41.8848 16.6089 41.5914 16.5215 41.2882 16.5149C41.1662 16.518 41.0455 16.5374 40.9304 16.5725C41.0316 16.4735 41.1111 16.3594 41.1651 16.2359C41.2607 15.9629 41.2536 15.6707 41.1448 15.4014C40.863 15.5469 40.6419 15.766 40.5133 16.027C40.4537 16.179 40.432 16.3401 40.4496 16.4999C40.3762 16.3883 40.2729 16.2935 40.1484 16.2234C39.7906 16.032 39.3098 16.1396 39.3098 16.1396C39.3098 16.1396 39.4097 16.5587 39.7675 16.7514C39.8644 16.8013 39.9716 16.8345 40.0832 16.849C39.9606 16.8853 39.8492 16.9452 39.7573 17.0241C39.4764 17.2744 39.5053 17.6922 39.5053 17.6922C39.5053 17.6922 39.9905 17.6997 40.2715 17.442C40.3354 17.3831 40.3868 17.3149 40.4235 17.2406C40.4284 17.3407 40.4565 17.439 40.5061 17.5296C40.6944 17.8586 41.1767 17.985 41.1767 17.985C41.1767 17.985 41.3519 17.5784 41.1622 17.2493C41.097 17.1426 41.0044 17.0501 40.8913 16.9791C41.0224 17.0194 41.1606 17.0397 41.2998 17.0391C41.602 17.0238 41.8913 16.9281 42.1282 16.7651ZM43.3173 11.0099C43.3173 11.0099 42.7712 10.9949 42.4352 11.2777C42.3376 11.3626 42.2612 11.464 42.2107 11.5754C42.1933 11.4485 42.1439 11.3263 42.0659 11.2176C41.8139 10.8698 41.2636 10.7735 41.2636 10.7735C41.2636 10.7735 41.1187 11.2414 41.3765 11.5905C41.4458 11.6829 41.5354 11.7628 41.6401 11.8257C41.4939 11.8094 41.3452 11.8222 41.2056 11.8632C40.7711 11.9983 40.5655 12.4325 40.5655 12.4325C40.5655 12.4325 41.0521 12.6477 41.4822 12.5125C41.5812 12.4803 41.6729 12.4333 41.7531 12.3737C41.701 12.4772 41.6734 12.5886 41.672 12.7015C41.672 13.1156 42.0891 13.4521 42.0891 13.4521C42.0891 13.4521 42.5004 13.1156 42.499 12.7015C42.495 12.5653 42.4549 12.4317 42.3816 12.3111C42.4912 12.4084 42.6196 12.4884 42.7611 12.5476C43.078 12.6605 43.4276 12.6859 43.7619 12.6201C43.6063 12.3561 43.3599 12.1402 43.0566 12.0021C42.9501 11.96 42.8376 11.9306 42.722 11.9145C42.8135 11.8774 42.8976 11.828 42.9711 11.7681C43.3086 11.4866 43.31 11.0174 43.31 11.0174L43.3173 11.0099ZM56.1999 12.151C56.1999 12.151 55.6582 12.0809 55.3005 12.3274C55.2183 12.3851 55.1487 12.455 55.0948 12.5338C55.1063 12.4211 55.0915 12.3075 55.0514 12.1998C54.8979 11.8082 54.3808 11.6042 54.3808 11.6042C54.3808 11.6042 54.1143 12.0371 54.2693 12.4287C54.3233 12.5567 54.4105 12.6722 54.5242 12.7665C54.385 12.7028 54.2341 12.6605 54.0781 12.6414C53.7359 12.6214 53.3948 12.6935 53.102 12.8478C53.3467 13.0554 53.6599 13.1922 53.9985 13.2395C54.124 13.2509 54.2508 13.2467 54.375 13.2269C54.3053 13.2977 54.2526 13.3798 54.2201 13.4684C54.1071 13.7975 54.3461 14.1503 54.3461 14.1503C54.3461 14.1503 54.769 13.9701 54.8819 13.6411C54.898 13.5926 54.9073 13.5426 54.9095 13.4922C54.9628 13.5683 55.0304 13.6364 55.1093 13.6936C55.4772 13.9538 56.0333 13.895 56.0333 13.895C56.0333 13.895 55.9942 13.4121 55.6264 13.1519C55.5464 13.0981 55.4569 13.0559 55.3613 13.0268C55.5223 13.0042 55.6745 12.948 55.8045 12.8629C56.1622 12.6126 56.2013 12.1472 56.2013 12.1472L56.1999 12.151ZM60.161 7.09388C60.1262 7.1666 60.1037 7.2433 60.0944 7.32158C60.0308 7.23004 59.9429 7.15286 59.838 7.09638C59.4919 6.91997 59.0183 7.05885 59.0183 7.05885C59.0183 7.05885 59.1037 7.48548 59.4528 7.66189C59.5576 7.71264 59.6746 7.74176 59.7946 7.74697C59.6474 7.77116 59.5087 7.82424 59.3891 7.90211C59.0299 8.15234 58.9893 8.61651 58.9893 8.61651C58.9893 8.61651 59.531 8.68782 59.8887 8.44135C59.9647 8.38761 60.0298 8.32335 60.0813 8.25118C60.0626 8.34799 60.0661 8.44702 60.0915 8.54269C60.1914 8.888 60.61 9.09444 60.61 9.09444C60.61 9.09444 60.8649 8.74162 60.7649 8.39631C60.7241 8.26978 60.648 8.15382 60.5433 8.0585C60.6843 8.1068 60.835 8.1302 60.9865 8.12731C61.3 8.10047 61.5943 7.98477 61.8236 7.79826C61.5771 7.62653 61.2713 7.53058 60.9547 7.52552C60.8777 7.52896 60.8014 7.53988 60.7273 7.55805C60.7865 7.49818 60.8353 7.43116 60.8721 7.35912C61.0589 6.98378 60.8518 6.55213 60.8518 6.55213C60.8518 6.55213 60.342 6.71979 60.1566 7.09262L60.161 7.09388ZM50.1141 1.40497C50.1557 1.41217 50.1978 1.41635 50.2401 1.41747C50.1997 1.45571 50.1642 1.49766 50.1344 1.54259C50.0091 1.7685 49.9784 2.02496 50.0475 2.26825C50.3253 2.19446 50.5652 2.04026 50.7268 1.8316C50.7867 1.73756 50.8245 1.63425 50.8383 1.52758C50.8806 1.61701 50.9431 1.69826 51.0222 1.76654C51.3119 2.01677 51.7985 1.9905 51.7985 1.9905C51.7985 1.9905 51.7985 1.57387 51.5088 1.32865C51.4252 1.26136 51.3267 1.20943 51.2192 1.17601C51.2983 1.17188 51.3763 1.15797 51.4509 1.13472C51.6852 1.04161 51.8757 0.882296 51.9911 0.683059C51.7519 0.600454 51.4873 0.590745 51.2409 0.655534C51.1643 0.681768 51.0925 0.717602 51.028 0.761881C51.0391 0.717886 51.0449 0.673028 51.0454 0.628009C51.0239 0.392181 50.9064 0.170555 50.7137 0.00244141C50.52 0.170182 50.4015 0.391851 50.3792 0.628009C50.38 0.71359 50.3987 0.798341 50.4342 0.878236C50.3786 0.85379 50.3197 0.835303 50.259 0.823186C49.8636 0.749369 49.4696 0.982082 49.4696 0.982082C49.4696 0.982082 49.7173 1.33365 50.1141 1.40621V1.40497ZM59.5513 15.8018C59.2493 15.7188 58.9249 15.7188 58.6229 15.8018C58.4722 15.8531 58.3341 15.9287 58.2159 16.0245C58.2034 15.9653 58.1825 15.9078 58.1537 15.8531C57.9654 15.5153 57.4874 15.3764 57.4874 15.3764C57.4874 15.3764 57.3136 15.7855 57.5019 16.1271C57.5233 16.1644 57.5485 16.2 57.5772 16.2334C57.5283 16.2367 57.4798 16.2438 57.4324 16.2547C57.008 16.3548 56.7618 16.7489 56.7618 16.7489C56.7618 16.7489 57.2036 16.9816 57.6308 16.8815C57.6574 16.874 57.6835 16.8652 57.709 16.8552C57.6954 16.8998 57.6871 16.9455 57.6844 16.9916C57.6641 17.3569 58.0161 17.6672 58.0161 17.6672C58.0161 17.6672 58.4028 17.3857 58.4245 17.0204C58.4257 16.9991 58.4257 16.9778 58.4245 16.9566C58.4404 16.9666 58.4534 16.9778 58.4708 16.9866C58.8503 17.188 59.3586 17.0704 59.3586 17.0704C59.3586 17.0704 59.2529 16.6275 58.8735 16.4261C58.8245 16.4002 58.7726 16.3788 58.7185 16.3623C58.7676 16.3529 58.816 16.3408 58.8633 16.326C59.1539 16.2171 59.3983 16.0331 59.5628 15.7993L59.5513 15.8018ZM38.6523 8.35752C38.6682 8.35752 38.6812 8.34877 38.6972 8.34501C38.6906 8.37012 38.6862 8.39564 38.6841 8.42133C38.6935 8.6253 38.7887 8.8193 38.9521 8.96683C39.1312 8.83305 39.248 8.64766 39.2808 8.4451C39.2825 8.40315 39.2786 8.36117 39.2692 8.31999C39.3041 8.34307 39.3414 8.36319 39.3808 8.38004C39.6132 8.45776 39.8704 8.46042 40.1049 8.38755C40.028 8.18421 39.8685 8.01178 39.6559 7.90211C39.5908 7.87603 39.5215 7.85873 39.4503 7.85081C39.4887 7.8265 39.5241 7.79882 39.556 7.76824C39.6936 7.61258 39.7656 7.42104 39.7602 7.22524C39.5346 7.24752 39.3245 7.33582 39.165 7.47547C39.1227 7.51816 39.0876 7.56575 39.0607 7.61685C39.0514 7.55402 39.0309 7.49282 38.9999 7.43543C38.8789 7.25584 38.6879 7.11926 38.4611 7.05009C38.3822 7.24595 38.3863 7.45964 38.4727 7.65313C38.514 7.72494 38.5705 7.78944 38.6392 7.84331C38.6013 7.8442 38.5635 7.84796 38.5263 7.85457C38.2925 7.91738 38.0926 8.05056 37.9629 8.22991C38.1669 8.34641 38.4127 8.39529 38.6552 8.36753L38.6523 8.35752ZM51.3727 3.99982C51.5877 3.72065 51.6705 3.38083 51.6039 3.05048C51.5373 2.72012 51.3265 2.42445 51.015 2.22446C50.8003 2.50372 50.7177 2.84346 50.7843 3.17372C50.8508 3.50398 51.0614 3.79964 51.3727 3.99982ZM53.8145 3.48435C53.9188 3.55673 54.0399 3.60879 54.1696 3.63698C54.2993 3.66516 54.4345 3.6688 54.566 3.64765C54.6975 3.62651 54.8221 3.58107 54.9314 3.51444C55.0407 3.44782 55.132 3.36159 55.1991 3.26165C55.0949 3.18927 54.9737 3.13721 54.844 3.10903C54.7143 3.08084 54.5791 3.0772 54.4476 3.09835C54.3161 3.1195 54.1915 3.16494 54.0822 3.23156C53.973 3.29818 53.8816 3.38441 53.8145 3.48435ZM52.8007 3.8159C52.5531 3.95726 52.3695 4.16803 52.2808 4.41269C52.5623 4.48094 52.8628 4.46009 53.128 4.35389C53.3756 4.21253 53.5593 4.00176 53.648 3.7571C53.3665 3.68885 53.066 3.7097 52.8007 3.8159ZM53.5553 1.25108C54.1419 0.910767 54.3345 0.270186 54.3345 0.270186C54.3345 0.270186 53.5756 0.181356 52.9876 0.520413C52.3995 0.859471 52.2084 1.5013 52.2084 1.5013C52.2084 1.5013 52.9673 1.59013 53.5553 1.25108ZM39.2316 10.278C39.1511 10.439 39.1338 10.6182 39.1823 10.7885C39.3693 10.7158 39.5246 10.5935 39.6255 10.4394C39.7059 10.2784 39.7232 10.0992 39.6748 9.92894C39.4874 10.0015 39.3316 10.1238 39.2301 10.278H39.2316ZM36.5754 13.1919C36.3424 13.1689 36.1068 13.2096 35.9019 13.3083C35.7126 13.4235 35.5714 13.5885 35.4993 13.7787C35.7324 13.8017 35.9679 13.761 36.1728 13.6623C36.3621 13.547 36.5033 13.3821 36.5754 13.1919ZM54.5068 7.18646C54.5648 7.12766 54.5068 7.09763 54.4474 7.10263C54.3881 7.10764 54.1013 7.12015 54.1013 7.12015C54.1013 7.12015 54.1013 6.9012 54.1013 6.76608C54.1013 6.63095 54.013 6.681 53.9695 6.7323C53.8845 6.8251 53.7873 6.90906 53.6798 6.98252C53.5277 6.95061 53.3671 6.971 53.232 7.03939C53.0969 7.10778 52.9978 7.21883 52.9557 7.34911C52.892 7.50925 52.85 7.64438 52.7413 7.65689C52.6327 7.6694 52.5704 7.48798 52.5458 7.20147C52.5212 6.91496 52.3358 6.63221 52.136 6.5684C51.9361 6.50459 51.1497 6.35696 51.0034 6.43328C50.8571 6.5096 50.9541 6.85991 51.3104 7.05885C50.9295 7.15143 51.1743 7.5055 51.5697 7.6206C51.2959 7.74572 51.5842 7.99594 51.8477 8.07601C51.6586 8.23562 51.5058 8.42448 51.3973 8.63277C50.2387 8.4939 50.0852 8.76789 50.0692 8.83921C50.0446 8.9443 50.1721 9.06691 50.3082 9.11321C50.1634 9.23832 49.9519 9.45477 50.0591 9.59865C50.1663 9.74253 50.4936 9.64119 50.6384 9.55611C50.612 9.62649 50.6151 9.70266 50.6471 9.77127C50.6792 9.83989 50.7381 9.89659 50.8137 9.93145C51.1888 10.0716 51.629 9.48855 51.6392 9.18077C51.7319 9.20579 52.2402 9.27335 52.3909 9.19828C52.2055 9.62492 52.4691 9.78507 52.5907 9.7125C52.556 10.3381 52.9079 10.2442 53.0151 10.1554C53.0151 10.2693 53.0296 10.7297 53.2932 10.7209C53.5567 10.7122 53.8551 10.1341 53.9521 9.59489C54.0492 9.05566 53.9811 8.73036 53.6842 8.48889C53.8649 8.35665 54.0098 8.19175 54.1087 8.00583C54.2075 7.8199 54.2579 7.6175 54.2563 7.41291C54.2563 7.41291 54.4561 7.25652 54.5155 7.19772L54.5068 7.18646ZM41 5.70386C41.0883 6.19306 41.2346 6.50084 41.5329 6.75482C41.1665 6.93998 41.2013 7.33284 41.3229 7.96091C41.4446 8.58898 41.8023 8.96182 42.0022 8.92679C42.2021 8.89176 42.247 8.64779 42.2021 8.3913C42.6264 8.73787 42.7046 8.20989 42.6076 7.93589C43.0421 7.97843 42.8567 7.57306 42.7828 7.42543C42.8321 7.45045 43.423 7.48924 43.5649 7.43419C43.8285 8.21865 44.2731 8.28245 44.4151 8.17235C44.557 8.06225 44.5121 7.94465 44.473 7.77574C44.6584 7.80577 44.8351 7.75948 44.8887 7.65063C44.9422 7.54178 44.864 7.46046 44.7438 7.38038C44.8427 7.37872 44.9405 7.36308 45.0335 7.33409C45.1059 7.31282 45.2826 7.20898 45.116 7.00129C44.9495 6.7936 43.9733 6.79861 43.7735 6.80236C43.6478 6.64184 43.5109 6.48809 43.3636 6.34194C43.4419 6.33459 43.5173 6.31266 43.5849 6.27766C43.6524 6.24267 43.7103 6.19545 43.7546 6.13926C43.7667 6.0872 43.7565 6.03311 43.7259 5.98708C43.6952 5.94105 43.6462 5.9062 43.5881 5.88903C43.7633 5.83899 44.0226 5.65257 44.0226 5.51369C44.0226 5.37482 43.8662 5.30725 43.7879 5.27723C43.8662 5.24345 44.3296 4.99072 44.1297 4.75801C43.9299 4.5253 42.9436 4.89688 42.8017 5.00823C42.6597 5.11958 42.6452 5.34229 42.6452 5.52245C42.6452 5.70262 42.6018 5.86401 42.4497 5.88903C42.2976 5.91406 42.2788 5.8002 42.2209 5.6313C42.3657 5.61504 42.3527 5.48366 42.2991 5.48366C42.2455 5.48366 42.1774 5.45364 42.0297 5.35855C41.9418 5.29925 41.8382 5.25975 41.7282 5.24359C41.6183 5.22743 41.5054 5.23512 41.3997 5.26597C41.3421 5.15776 41.2783 5.05211 41.2085 4.94943C41.1347 4.85309 41.0724 4.94943 41.0724 5.02075C41.0724 5.09206 41.097 5.37481 41.097 5.37481L40.7204 5.32852C40.6176 5.31601 40.6234 5.37857 40.677 5.42986C40.7306 5.48116 41.0043 5.71262 41.0043 5.71262L41 5.70386ZM47.2624 12.226C47.2624 12.3161 47.2624 12.445 47.5419 12.4287C47.7694 12.3956 47.9809 12.3062 48.1508 12.1715C48.3207 12.0367 48.4417 11.8622 48.4993 11.6693C48.676 11.1513 48.4674 10.5107 47.9909 10.2342C47.5144 9.95772 46.7642 10.0966 46.4803 10.3406C46.1675 10.6108 45.9401 11.1338 46.2196 11.5166C46.3143 11.6548 46.453 11.7665 46.6191 11.8384C46.7853 11.9103 46.9719 11.9393 47.1567 11.922C47.3424 11.8977 47.5129 11.8191 47.6397 11.6993C47.7665 11.5796 47.8419 11.4259 47.8533 11.2639C47.8599 11.2376 47.8633 11.2108 47.8635 11.1838C47.8638 11.1141 47.8433 11.0455 47.804 10.9846C47.7646 10.9238 47.7078 10.8727 47.6389 10.8363C47.5701 10.8 47.4915 10.7796 47.4109 10.7771C47.3302 10.7746 47.2502 10.7902 47.1785 10.8222C47.1068 10.8543 47.0459 10.9017 47.0017 10.9601C46.9575 11.0184 46.9314 11.0856 46.926 11.1551C46.9206 11.2247 46.9361 11.2943 46.9709 11.3572C47.0057 11.42 47.0588 11.4741 47.1248 11.5141C47.0294 11.5494 46.9218 11.5511 46.825 11.5188C46.7281 11.4866 46.6497 11.4229 46.6063 11.3415C46.4615 11.1163 46.392 10.5483 47.1857 10.3906C47.9793 10.233 48.227 11.0099 48.2342 11.2664C48.2415 11.5229 48.1763 12.1497 47.2566 12.2235L47.2624 12.226ZM47.5753 4.91565C47.5737 4.85896 47.5531 4.80388 47.5161 4.75704C47.4791 4.7102 47.4272 4.6736 47.3667 4.65166C47.2363 4.59035 46.7874 4.44397 46.6049 4.10617C46.4224 3.76836 46.3833 3.34673 46.741 3.06022C47.0988 2.77371 47.7375 2.89131 47.9257 3.0377C48.0177 3.10042 48.0864 3.185 48.1235 3.28102C48.1606 3.37705 48.1643 3.48034 48.1343 3.57819C48.0928 3.67061 48.0132 3.74647 47.9107 3.79108C47.8082 3.83568 47.6903 3.84586 47.5796 3.81966C47.6352 3.78129 47.6786 3.73137 47.7057 3.67455C47.7329 3.61773 47.7428 3.55589 47.7347 3.49483C47.7266 3.43377 47.7007 3.37549 47.6594 3.32546C47.618 3.27543 47.5627 3.23528 47.4985 3.20878C47.4343 3.18229 47.3634 3.17032 47.2923 3.174C47.2213 3.17767 47.1525 3.19687 47.0925 3.22979C47.0324 3.26271 46.983 3.30828 46.9489 3.36222C46.9148 3.41615 46.8971 3.47669 46.8974 3.53815C46.8974 3.62212 46.9169 3.70524 46.9548 3.78256C46.9927 3.85988 47.0483 3.92981 47.1182 3.98818C47.188 4.04656 47.2708 4.09219 47.3615 4.12234C47.4523 4.1525 47.5491 4.16657 47.6462 4.16372C48.2067 4.16372 48.5152 3.82091 48.5152 3.3755C48.5152 2.9301 48.0402 2.57728 47.3566 2.57728C46.673 2.57728 46.0936 3.10651 46.1067 3.62948C46.1197 4.15246 46.5108 4.82182 47.5724 4.9119L47.5753 4.91565ZM61.7657 15.5791C61.644 15.4952 59.7888 14.672 57.5888 14.4743L57.696 14.4368C59.6816 13.7086 60.6664 12.7778 60.9691 12.3987C61.5963 12.5426 62.1278 12.3249 62.345 12.0459C62.5623 11.7669 62.6579 11.0112 62.1828 10.6108C61.9162 10.4 61.5796 10.267 61.2206 10.2306C60.8617 10.1942 60.4986 10.2563 60.1827 10.4081C59.4586 10.7347 59.5831 11.7306 59.7859 11.9095C59.9887 12.0884 60.1045 12.0621 60.1697 12.0284C60.0973 11.9721 59.8511 11.7919 59.909 11.3302C59.9425 11.0921 60.0824 10.8746 60.2988 10.7243C60.5153 10.574 60.7912 10.5028 61.0676 10.5257C61.7063 10.5533 62.1553 10.8911 62.1683 11.4541C62.1776 11.5516 62.1629 11.6497 62.1251 11.742C62.0874 11.8342 62.0276 11.9186 61.9495 11.9894C61.8714 12.0603 61.7769 12.1161 61.6721 12.1532C61.5673 12.1904 61.4546 12.2079 61.3414 12.2048C61.0227 12.1935 60.6708 12.0972 60.6838 11.7493C60.6794 11.6924 60.6968 11.6357 60.7335 11.5882C60.7702 11.5407 60.824 11.505 60.8866 11.4866C60.9005 11.5499 60.9342 11.6087 60.9839 11.6567C61.0336 11.7047 61.0976 11.7401 61.1689 11.759C61.2402 11.7779 61.3161 11.7797 61.3884 11.7641C61.4608 11.7485 61.5269 11.7161 61.5795 11.6705C61.6322 11.6249 61.6694 11.5677 61.6872 11.5052C61.7051 11.4426 61.7028 11.377 61.6807 11.3155C61.6586 11.254 61.6174 11.1989 61.5617 11.156C61.506 11.1132 61.4378 11.0843 61.3645 11.0725C61.2249 11.0378 61.0774 11.0346 60.936 11.063C60.7945 11.0915 60.6638 11.1507 60.5564 11.2351C60.4631 11.3121 60.3933 11.4078 60.3532 11.5137C60.3132 11.6197 60.3042 11.7325 60.327 11.8422C60.3498 11.9519 60.4037 12.055 60.4839 12.1423C60.5642 12.2296 60.6682 12.2983 60.7867 12.3424C60.0538 13.0593 58.4534 14.0114 56.9588 14.2841C55.8626 14.4904 54.7292 14.5019 53.6277 14.3179C53.5394 14.0902 53.1585 13.7524 52.5342 13.7862C52.3398 13.7869 52.1514 13.8446 51.9999 13.9498C51.8484 14.0551 51.7426 14.2016 51.7 14.3655C51.6674 14.4274 51.6549 14.4959 51.6639 14.5635C51.6728 14.6312 51.7029 14.6954 51.7509 14.7494C51.7989 14.8034 51.863 14.8451 51.9363 14.8701C52.0096 14.895 52.0894 14.9023 52.1671 14.8911C52.2448 14.8798 52.3176 14.8506 52.3775 14.8064C52.4375 14.7622 52.4824 14.7048 52.5074 14.6403C52.5325 14.5757 52.5368 14.5065 52.5198 14.44C52.5029 14.3736 52.4653 14.3123 52.4111 14.2629C52.7949 14.1978 53.0904 14.5031 53.0904 14.8747C53.0851 15.0264 53.0218 15.1724 52.9105 15.2898C52.7992 15.4072 52.646 15.4896 52.4749 15.524C52.2996 15.549 51.7507 15.6679 51.3814 15.1274C51.0121 14.5869 51.5088 14.0014 51.6841 13.7599C51.8593 13.5185 52.5342 12.9154 52.8659 12.5789C53.086 12.3549 53.59 11.8482 54.0723 11.414C54.2036 11.3251 54.3568 11.2636 54.5201 11.2343C54.6834 11.205 54.8524 11.2087 55.0137 11.2451C55.483 11.3465 55.9653 11.5717 56.5895 12.0108C57.2137 12.45 57.8785 12.8316 58.1392 12.6189C57.9697 12.5401 57.4744 12.3599 57.1254 12.0559C56.7966 11.7719 55.7379 10.8373 54.8443 10.7735C55.2317 10.4901 55.5956 10.1837 55.9334 9.85638C58.0566 10.4344 60.1494 9.99025 60.8489 9.70374C60.7968 9.63618 60.6665 9.62492 60.4144 9.68122C58.4781 10.1216 56.9834 9.8201 56.2274 9.55611C56.3896 9.39096 56.5649 9.20454 56.7589 8.98935C57.7264 7.91712 57.8727 6.26312 57.8524 6.12049C57.8321 5.97786 57.8032 5.91781 57.696 5.90155C57.696 6.22184 57.7148 7.3366 56.3375 8.87174C56.1318 9.1007 55.9566 9.28211 55.7973 9.43475C55.4308 8.35252 55.6524 6.56965 55.7596 5.94533C56.0003 5.97453 56.2448 5.96988 56.4838 5.93157C57.5251 5.77393 57.8901 4.85184 57.8321 4.35013C57.7742 3.84843 57.5222 3.13528 56.5171 3.03394C56.2375 3.00517 56.1912 3.14029 56.1854 3.18533C56.3215 3.18533 56.9414 3.21285 57.26 3.58444C57.5787 3.95603 57.6308 4.69295 57.2861 5.0758C56.9414 5.45864 56.1666 5.75141 55.638 5.57625C55.1093 5.40109 54.7284 4.96695 54.8631 4.42896C54.9978 3.89097 55.5206 3.80339 55.7625 3.83217C56.0044 3.86094 56.4461 4.00107 56.4794 4.33262C56.4942 4.40198 56.4836 4.4736 56.4491 4.53752C56.4146 4.60143 56.3578 4.65445 56.2868 4.6892C56.2913 4.66899 56.2937 4.64847 56.294 4.62789C56.2943 4.56089 56.2731 4.49513 56.2327 4.43791C56.1924 4.38068 56.1345 4.33423 56.0655 4.30369C55.9964 4.27315 55.919 4.25972 55.8416 4.26488C55.7643 4.27005 55.6901 4.29362 55.6274 4.33296C55.5646 4.37231 55.5156 4.42591 55.486 4.48781C55.4563 4.54972 55.447 4.61751 55.4592 4.68368C55.4714 4.74985 55.5046 4.8118 55.5551 4.86269C55.6055 4.91357 55.6713 4.95139 55.7451 4.97195H55.764C55.8001 4.98142 55.8377 4.98647 55.8755 4.98696H55.9131C56.0486 4.99483 56.1845 4.9787 56.3126 4.93954C56.4406 4.90038 56.558 4.83903 56.6576 4.75926C56.9371 4.50903 56.8444 4.08239 56.7618 3.94352C56.5996 3.66827 56.281 3.44306 55.6351 3.49936C54.9109 3.56693 54.2548 4.21376 54.4764 4.93442C54.5389 5.16474 54.6728 5.37605 54.8636 5.54575C55.0544 5.71544 55.295 5.83713 55.5597 5.89779C55.202 7.49924 55.3744 9.07817 55.467 9.73502C54.8037 10.2755 54.4532 10.2617 53.4597 11.0925C52.1113 12.2185 51.7594 13.0418 50.7731 12.983C49.7868 12.9242 49.5623 10.5783 49.4696 9.47979C49.458 9.30741 49.4643 9.13448 49.4885 8.96307C49.6333 8.57522 50.0258 8.07852 50.7195 8.03598C50.7195 7.9434 50.6413 7.85832 50.4299 7.8921C50.1542 7.95821 49.8939 8.06532 49.6608 8.20863C49.8421 7.6804 50.0934 7.172 50.4096 6.69351C50.6297 6.37572 51.057 5.98912 51.4234 5.4674C51.8709 5.21717 53.0469 4.83057 53.8956 4.71672C53.8701 4.6681 53.8263 4.62833 53.7714 4.60382C53.7165 4.57931 53.6536 4.57148 53.5929 4.5816C52.9376 4.68295 52.2956 4.84098 51.6768 5.05328C51.9278 4.54967 52.1147 4.02403 52.2344 3.4856C52.2634 3.23537 52.2243 3.17282 52.0983 3.13904C52.0795 3.51438 51.7275 4.39017 51.4335 4.92816C51.1395 5.46615 50.5153 5.89028 49.9678 6.75106C49.4848 7.56215 49.1269 8.42444 48.9034 9.31589C48.2777 9.10445 47.555 7.95716 47.4188 7.68941C47.2827 7.42167 46.9018 6.48332 46.1878 5.74015C45.6954 5.22936 45.1197 4.78306 44.4788 4.4152C44.4234 4.39399 44.3634 4.38304 44.3028 4.38304C44.2422 4.38304 44.1823 4.39399 44.1268 4.4152C44.8698 4.753 45.6896 5.59627 46.0907 6.07795C46.4919 6.55964 46.9018 7.4542 47.1451 8.07977C47.3884 8.70534 47.8577 9.15199 48.3038 9.57362C48.7498 9.99526 49.0656 10.8248 49.0366 11.6155C49.0076 12.4062 48.2154 13.0505 47.6781 13.0756C47.1408 13.1006 46.7019 12.4763 45.8214 11.7669C45.6939 11.6643 45.5665 11.5679 45.439 11.4741C45.8981 9.75879 45.5621 8.36378 45.3825 7.94465C45.3825 7.94465 45.2261 7.80953 45.3536 8.48514C45.4694 9.09945 45.2768 10.6771 45.0943 11.2289C44.6242 10.9058 44.1303 10.6094 43.6156 10.3418C43.2347 10.1479 42.063 9.59114 41.32 8.84046C40.5771 8.08978 40.0006 6.69727 39.9528 6.39324C39.8645 6.43578 39.808 6.53712 39.8558 6.74731C40.0779 7.4323 40.3995 8.09022 40.8131 8.70534C41.3012 9.37219 42.4642 10.3756 42.9233 10.6208C43.3824 10.866 44.5164 11.5742 45.0335 12.0296C45.5505 12.485 46.1081 13.2957 46.2052 13.7261C45.4553 13.5186 44.6626 13.4525 43.8806 13.5322C43.4064 13.6074 42.9596 13.7789 42.5772 14.0327C41.9356 13.9043 41.3323 13.661 40.8064 13.3186C40.2805 12.9761 39.8437 12.5421 39.5242 12.0446C39.5173 11.722 39.5866 11.4015 39.7278 11.1027C39.869 10.8039 40.0791 10.5331 40.3453 10.3068C40.2179 10.2392 40.1006 10.3155 40.0238 10.3831C39.947 10.4507 39.4126 11.0087 39.2663 11.618C38.6725 10.5107 38.5639 9.37219 38.519 8.94055C38.3626 8.94931 38.3438 9.05065 38.3438 9.14323C38.3876 10.0074 38.5829 10.8608 38.9231 11.6743C39.3158 12.5514 39.9572 13.3292 40.7885 13.9363C41.1796 14.1978 41.882 14.2566 41.6488 14.5444C41.4156 14.8321 40.9449 14.5782 39.9007 15.0761C39.5407 15.2518 39.2012 15.4571 38.8869 15.6892L38.6682 15.449C38.9984 15.1199 38.9738 14.6107 38.8681 14.2441C39.5256 14.3792 39.9876 14.2328 39.9948 14.0189C40.0021 13.805 39.5719 13.7261 39.2852 13.805C39.4807 13.6924 39.7935 13.3383 39.6038 13.1857C39.4141 13.033 39.1693 13.1857 39.0114 13.337C39.0245 13.242 39.0636 12.8816 38.6798 12.8979C38.296 12.9142 38.4003 13.601 38.4843 13.8988C38.0498 14.2591 37.0447 14.6495 36.8491 14.6858C36.5596 14.7458 36.2912 14.8655 36.0671 15.0348C35.9757 15.1278 35.9182 15.242 35.902 15.3632C35.8857 15.4843 35.9114 15.6069 35.9758 15.7154C35.9269 15.8066 35.8858 15.9007 35.8527 15.9969C35.8266 16.1108 35.8889 16.1108 35.9309 16.0808C35.9961 16.0357 36.1786 15.8731 36.1786 15.8731C36.1957 15.9588 36.2068 16.0452 36.2119 16.1321C36.2119 16.2222 36.2901 16.2059 36.3089 16.1659C36.3421 16.0807 36.3879 15.9995 36.4451 15.9244C36.5102 15.8568 36.8491 15.7555 37.1287 15.733C37.3778 15.7129 38.07 15.793 38.4857 15.5816L38.7203 15.8118C38.3958 16.0574 38.0937 16.3243 37.8166 16.61C37.6805 16.7614 37.6312 16.9303 37.7196 16.9853C38.504 16.1108 39.5811 15.4661 40.8044 15.1387C41.2187 15.0473 41.5387 15.0398 41.9414 15.2313C41.9877 16.3573 42.9117 16.7076 43.3897 16.6738C43.8676 16.64 44.2195 16.4624 44.3571 16.1171C44.4175 15.9631 44.433 15.7986 44.4022 15.6381C44.3713 15.4777 44.2952 15.3264 44.1804 15.1975L44.1717 15.2075C44.1135 15.1637 44.0438 15.1328 43.9687 15.1173C43.8935 15.1019 43.8152 15.1024 43.7403 15.1189C43.6655 15.1353 43.5964 15.1672 43.5389 15.2117C43.4814 15.2563 43.4373 15.3122 43.4103 15.3747C43.3833 15.4372 43.3743 15.5044 43.3839 15.5706C43.3936 15.6368 43.4216 15.7 43.4657 15.7548C43.5098 15.8095 43.5686 15.8543 43.6371 15.8851C43.7056 15.916 43.7817 15.932 43.8589 15.9319C43.8891 15.9318 43.9191 15.9293 43.9487 15.9244C43.9371 16.1271 43.7141 16.2272 43.4867 16.2272C43.2231 16.2272 42.9074 15.9231 42.8915 15.459C42.8755 14.9948 43.3795 14.5306 44.0501 14.5306C44.7207 14.5306 45.2913 15.0786 45.5346 15.5428C45.7779 16.007 45.9054 16.6988 45.7098 17.2055C45.5143 17.7123 44.6149 19.4501 44.0298 20.8176C43.4447 22.1851 42.9363 24.0417 42.7408 24.6148C42.5805 25.1131 42.3712 25.5986 42.1152 26.0661C41.9587 26.3025 41.9776 26.5215 42.2325 26.6566C42.4874 26.7917 44.3933 27.3848 46.6483 26.6066C47.0394 26.4715 47.0828 26.1512 46.7859 26.0498C46.489 25.9485 45.8865 25.9322 45.3985 25.5606C44.9104 25.189 44.7728 24.5485 44.8322 23.8904C44.8916 23.2323 45.4767 21.3881 46.0632 19.9918C46.6498 18.5956 47.5115 17.6147 48.1922 17.5947C48.8729 17.5746 49.306 18.5956 49.5203 19.046C49.7347 19.4964 50.3994 22.2364 50.4777 23.7377C50.5559 25.2391 49.7158 25.6957 49.2075 25.7796C48.6991 25.8634 48.0749 25.7283 48.0286 25.144C47.9982 24.7549 48.3284 24.5184 48.5818 24.7161C48.4066 24.9576 48.5369 25.2954 48.8715 25.2904C48.9426 25.2885 49.0125 25.2742 49.0771 25.2484C49.1416 25.2225 49.1994 25.1856 49.2469 25.1398C49.2944 25.0941 49.3307 25.0405 49.3536 24.9823C49.3764 24.9241 49.3854 24.8625 49.3798 24.8012C49.3759 24.7076 49.3494 24.6158 49.302 24.5316C49.2546 24.4474 49.1874 24.3727 49.1046 24.3123C49.0219 24.2519 48.9254 24.207 48.8214 24.1807C48.7174 24.1544 48.6082 24.1471 48.5007 24.1594C47.7259 24.2382 47.3276 24.8675 47.3421 25.3917C47.3566 25.9159 47.5955 27.0082 49.3929 27.0082C50.663 27.0082 50.8774 26.6429 52.0693 26.5753C53.2613 26.5077 54.6082 26.9982 55.3512 26.9982C55.7857 26.9982 55.874 26.9031 55.9435 26.763C56.0884 26.4765 55.7813 26.2212 55.5467 26.0361C55.1263 25.665 54.8119 25.2143 54.6285 24.7199C54.375 24.0618 53.9449 22.0487 53.6523 21.1716C53.3598 20.2946 52.3257 18.2703 52.1866 17.965C52.0476 17.6597 51.7522 17.2706 52.2996 16.9516C52.8837 16.599 53.3446 16.1148 53.632 15.5515C53.8565 15.0511 54.1694 15.0511 54.6285 14.9948C54.9819 14.9498 55.538 15.0261 56.6025 14.7608C57.7771 14.7471 60.4608 15.1362 62.0003 15.9344C62.0051 15.8592 61.9858 15.7844 61.9444 15.7181C61.9029 15.6519 61.8411 15.5968 61.7657 15.5591V15.5791ZM46.9583 2.27576C47.0047 2.27576 47.05 2.26387 47.0886 2.2416C47.1272 2.21933 47.1573 2.18767 47.175 2.15063C47.1928 2.1136 47.1974 2.07285 47.1884 2.03353C47.1793 1.99421 47.157 1.9581 47.1242 1.92975C47.0914 1.90141 47.0496 1.8821 47.0041 1.87428C46.9585 1.86646 46.9114 1.87047 46.8685 1.88581C46.8256 1.90115 46.789 1.92714 46.7632 1.96047C46.7374 1.9938 46.7236 2.03298 46.7236 2.07307C46.7236 2.09969 46.7297 2.12604 46.7415 2.15063C46.7533 2.17522 46.7706 2.19757 46.7924 2.21639C46.8142 2.23521 46.84 2.25014 46.8685 2.26033C46.897 2.27051 46.9275 2.27576 46.9583 2.27576ZM42.1137 4.6379C42.1601 4.6379 42.2055 4.62601 42.2441 4.60374C42.2826 4.58147 42.3127 4.54981 42.3305 4.51278C42.3482 4.47574 42.3529 4.43499 42.3438 4.39567C42.3348 4.35635 42.3124 4.32024 42.2796 4.29189C42.2468 4.26355 42.205 4.24424 42.1595 4.23642C42.114 4.2286 42.0668 4.23262 42.0239 4.24796C41.981 4.2633 41.9444 4.28928 41.9186 4.32261C41.8928 4.35594 41.8791 4.39513 41.8791 4.43521C41.8791 4.48897 41.9038 4.54052 41.9478 4.57853C41.9918 4.61654 42.0515 4.6379 42.1137 4.6379ZM52.3518 5.83648C52.3518 5.7964 52.338 5.75721 52.3122 5.72388C52.2864 5.69055 52.2498 5.66457 52.2069 5.64923C52.164 5.63389 52.1169 5.62987 52.0714 5.6377C52.0258 5.64552 51.984 5.66482 51.9512 5.69317C51.9184 5.72151 51.8961 5.75763 51.887 5.79694C51.878 5.83626 51.8826 5.87701 51.9004 5.91405C51.9181 5.95109 51.9482 5.98274 51.9868 6.00501C52.0254 6.02728 52.0707 6.03917 52.1171 6.03917C52.1793 6.03917 52.239 6.01781 52.283 5.9798C52.327 5.94179 52.3518 5.89024 52.3518 5.83648ZM50.6514 12.4187C50.6514 12.4588 50.6652 12.498 50.691 12.5313C50.7168 12.5646 50.7534 12.5906 50.7963 12.606C50.8392 12.6213 50.8863 12.6253 50.9318 12.6175C50.9774 12.6097 51.0192 12.5904 51.052 12.562C51.0848 12.5337 51.1071 12.4976 51.1162 12.4582C51.1252 12.4189 51.1206 12.3782 51.1028 12.3411C51.0851 12.3041 51.055 12.2725 51.0164 12.2502C50.9778 12.2279 50.9325 12.216 50.8861 12.216C50.8238 12.216 50.7642 12.2374 50.7202 12.2754C50.6762 12.3134 50.6514 12.365 50.6514 12.4187ZM59.2674 10.6971C59.2674 10.6571 59.2536 10.6179 59.2279 10.5845C59.2021 10.5512 59.1654 10.5252 59.1226 10.5099C59.0797 10.4945 59.0325 10.4905 58.987 10.4984C58.9415 10.5062 58.8997 10.5255 58.8669 10.5538C58.834 10.5822 58.8117 10.6183 58.8026 10.6576C58.7936 10.6969 58.7982 10.7377 58.816 10.7747C58.8338 10.8117 58.8638 10.8434 58.9024 10.8657C58.941 10.8879 58.9864 10.8998 59.0328 10.8998C59.095 10.8998 59.1547 10.8785 59.1987 10.8405C59.2427 10.8025 59.2674 10.7509 59.2674 10.6971ZM63.0764 12.2836C63.1228 12.2836 63.1682 12.2717 63.2068 12.2494C63.2454 12.2272 63.2754 12.1955 63.2932 12.1585C63.311 12.1214 63.3156 12.0807 63.3065 12.0414C63.2975 12.002 63.2751 11.9659 63.2423 11.9376C63.2095 11.9092 63.1677 11.8899 63.1222 11.8821C63.0767 11.8743 63.0295 11.8783 62.9866 11.8936C62.9438 11.909 62.9071 11.935 62.8813 11.9683C62.8556 12.0016 62.8418 12.0408 62.8418 12.0809C62.8418 12.1347 62.8665 12.1862 62.9105 12.2242C62.9545 12.2622 63.0142 12.2836 63.0764 12.2836ZM36.154 11.7093C36.1075 11.7093 36.0622 11.7212 36.0236 11.7435C35.985 11.7657 35.9549 11.7974 35.9372 11.8344C35.9194 11.8715 35.9148 11.9122 35.9238 11.9515C35.9329 11.9909 35.9552 12.027 35.988 12.0553C36.0209 12.0837 36.0627 12.103 36.1082 12.1108C36.1537 12.1186 36.2009 12.1146 36.2437 12.0993C36.2866 12.0839 36.3233 12.0579 36.349 12.0246C36.3748 11.9913 36.3886 11.9521 36.3886 11.912C36.3886 11.8582 36.3639 11.8067 36.3199 11.7687C36.2759 11.7307 36.2162 11.7093 36.154 11.7093ZM42.835 13.2107C42.835 13.2508 42.8487 13.2899 42.8745 13.3233C42.9003 13.3566 42.9369 13.3826 42.9798 13.3979C43.0227 13.4133 43.0698 13.4173 43.1154 13.4095C43.1609 13.4016 43.2027 13.3823 43.2355 13.354C43.2683 13.3256 43.2907 13.2895 43.2997 13.2502C43.3088 13.2109 43.3041 13.1701 43.2864 13.1331C43.2686 13.0961 43.2385 13.0644 43.1999 13.0421C43.1614 13.0199 43.116 13.008 43.0696 13.008C43.0074 13.008 42.9477 13.0293 42.9037 13.0674C42.8597 13.1054 42.835 13.1569 42.835 13.2107ZM40.4511 8.83921C40.4047 8.83921 40.3593 8.85109 40.3207 8.87336C40.2821 8.89564 40.2521 8.92729 40.2343 8.96433C40.2165 9.00136 40.2119 9.04212 40.2209 9.08144C40.23 9.12075 40.2523 9.15687 40.2852 9.18521C40.318 9.21356 40.3598 9.23286 40.4053 9.24068C40.4508 9.2485 40.498 9.24449 40.5408 9.22915C40.5837 9.21381 40.6204 9.18783 40.6461 9.1545C40.6719 9.12117 40.6857 9.08198 40.6857 9.04189C40.6857 8.98814 40.661 8.93658 40.617 8.89857C40.573 8.86056 40.5133 8.83921 40.4511 8.83921ZM44.7351 10.5282C44.7815 10.5282 44.8269 10.5164 44.8655 10.4941C44.9041 10.4718 44.9341 10.4402 44.9519 10.4031C44.9697 10.3661 44.9743 10.3253 44.9653 10.286C44.9562 10.2467 44.9339 10.2106 44.901 10.1822C44.8682 10.1539 44.8264 10.1346 44.7809 10.1268C44.7354 10.1189 44.6882 10.123 44.6454 10.1383C44.6025 10.1536 44.5658 10.1796 44.5401 10.213C44.5143 10.2463 44.5005 10.2855 44.5005 10.3256C44.5005 10.3793 44.5252 10.4309 44.5692 10.4689C44.6132 10.5069 44.6729 10.5282 44.7351 10.5282ZM40.6871 14.388C40.6871 14.3479 40.6734 14.3087 40.6476 14.2754C40.6218 14.2421 40.5852 14.2161 40.5423 14.2007C40.4994 14.1854 40.4522 14.1814 40.4067 14.1892C40.3612 14.197 40.3194 14.2163 40.2866 14.2447C40.2538 14.273 40.2314 14.3091 40.2224 14.3485C40.2133 14.3878 40.218 14.4285 40.2357 14.4656C40.2535 14.5026 40.2836 14.5342 40.3222 14.5565C40.3607 14.5788 40.4061 14.5907 40.4525 14.5907C40.5147 14.5907 40.5744 14.5693 40.6184 14.5313C40.6624 14.4933 40.6871 14.4417 40.6871 14.388ZM37.4444 16.346C37.4444 16.3059 37.4306 16.2667 37.4048 16.2334C37.3791 16.2001 37.3424 16.1741 37.2996 16.1588C37.2567 16.1434 37.2095 16.1394 37.164 16.1472C37.1185 16.155 37.0767 16.1744 37.0439 16.2027C37.011 16.231 36.9887 16.2672 36.9796 16.3065C36.9706 16.3458 36.9752 16.3865 36.993 16.4236C37.0108 16.4606 37.0408 16.4923 37.0794 16.5145C37.118 16.5368 37.1634 16.5487 37.2098 16.5487C37.272 16.5487 37.3317 16.5273 37.3757 16.4893C37.4197 16.4513 37.4444 16.3998 37.4444 16.346ZM61.0647 13.2745C61.0647 13.2344 61.051 13.1952 61.0252 13.1619C60.9994 13.1285 60.9628 13.1026 60.9199 13.0872C60.877 13.0719 60.8298 13.0679 60.7843 13.0757C60.7388 13.0835 60.697 13.1028 60.6642 13.1312C60.6314 13.1595 60.609 13.1956 60.6 13.2349C60.5909 13.2743 60.5956 13.315 60.6133 13.352C60.6311 13.3891 60.6612 13.4207 60.6998 13.443C60.7383 13.4653 60.7837 13.4772 60.8301 13.4772C60.8923 13.4772 60.952 13.4558 60.996 13.4178C61.04 13.3798 61.0647 13.3282 61.0647 13.2745ZM34.5058 33.9395C34.2657 34.1201 33.955 34.2149 33.6368 34.2047C32.8055 34.2047 32.2334 33.7243 32.2334 32.9924C32.2334 32.318 32.7273 31.78 33.6252 31.78C33.9253 31.7702 34.2193 31.8551 34.4522 32.019L34.2379 32.3243C34.0578 32.2166 33.8427 32.1613 33.6238 32.1666C33.1183 32.1666 32.7374 32.4819 32.7374 32.9924C32.73 33.1013 32.7491 33.2104 32.7935 33.3125C32.8379 33.4147 32.9066 33.5077 32.9952 33.5855C33.0838 33.6633 33.1902 33.7242 33.3077 33.7643C33.4252 33.8043 33.5511 33.8227 33.6774 33.8181C33.9102 33.8185 34.1368 33.7525 34.3218 33.6304L34.5058 33.9395ZM35.4443 31.8251C35.5891 31.8188 35.957 31.8088 36.2293 31.8088C36.8781 31.8088 37.1229 32.059 37.1229 32.3893C37.1291 32.502 37.0953 32.6136 37.0259 32.7091C36.9565 32.8046 36.8549 32.8794 36.7347 32.9236V32.9298C36.8771 32.9563 37.0036 33.026 37.0914 33.1264C37.1791 33.2268 37.2222 33.3511 37.2127 33.4766C37.2127 33.9595 36.7782 34.1809 36.1988 34.1809C35.9497 34.1809 35.6007 34.1747 35.4414 34.1647L35.4443 31.8251ZM35.9222 32.2004V32.7947H36.2452C36.4668 32.7947 36.6493 32.6971 36.6493 32.4819C36.6493 32.2905 36.4784 32.1904 36.2148 32.1904C36.1119 32.1941 36.0077 32.1979 35.9222 32.2042V32.2004ZM35.9222 33.1538V33.7793C36.0265 33.7901 36.1315 33.7956 36.2365 33.7956C36.5595 33.7956 36.7333 33.678 36.7333 33.4565C36.7333 33.2589 36.558 33.1575 36.2597 33.1575L35.9222 33.1538ZM38.3061 31.815H39.8804V32.2016H38.7841V32.7859H39.7631V33.1725H38.7841V33.7806H39.9181V34.1672H38.3061V31.815ZM40.6669 31.815H42.9088V32.2016H42.0268V34.1659H41.5489V32.2042H40.6669V31.815ZM45.2 32.2016H44.4078L44.3528 32.6446C44.1935 34.0108 43.8401 34.2322 43.3042 34.1647L43.3158 33.7556C43.5258 33.7793 43.801 33.7018 43.9212 32.2855L43.9603 31.815H45.6736V34.1684H45.2V32.2016ZM47.3725 32.6208C47.4729 32.6098 47.574 32.6044 47.6752 32.6045C48.3472 32.6045 48.6702 32.9035 48.6702 33.3627C48.6702 33.8632 48.2661 34.1722 47.5709 34.1722C47.3146 34.1722 47.0539 34.1659 46.8945 34.1659V31.8188H47.3725V32.6208ZM47.3725 33.0074V33.7806C47.4579 33.7806 47.5361 33.7906 47.6288 33.7906C47.9779 33.7906 48.1647 33.653 48.1647 33.3777C48.1647 33.1275 47.9706 32.9949 47.6361 32.9949C47.5475 32.9959 47.459 33.0009 47.371 33.0099L47.3725 33.0074ZM49.0236 31.8163H49.4972V34.1684H49.0221L49.0236 31.8163ZM50.7152 34.1659V31.8188H51.1931V33.4903L52.6197 31.8188H53.0397V34.1684H52.556V32.4994L51.1294 34.1672L50.7152 34.1659ZM51.5928 31.2458C51.6247 31.3709 51.729 31.441 51.9231 31.441C52.1171 31.441 52.2127 31.3909 52.2344 31.2458H52.6805C52.6689 31.5348 52.3503 31.7262 51.9231 31.7262C51.4567 31.7262 51.1728 31.531 51.1468 31.2458H51.5928ZM55.5453 31.8163H56.0319L56.9602 32.9135L57.8466 31.8163H58.297V34.1684H57.8234V32.4694L56.9646 33.5128H56.8951L56.0261 32.4794V34.1684H55.5481L55.5453 31.8163ZM59.5078 34.1684V31.8188H59.9858V33.4903L61.4123 31.8188H61.8323V34.1684H61.3544V32.4994L59.9278 34.1672L59.5078 34.1684ZM63.0503 34.1684V31.8188C63.1952 31.8188 63.6297 31.8125 63.8238 31.8125C64.6247 31.8125 64.8767 32.1879 64.8767 32.5632C64.8767 32.9386 64.5305 33.3252 63.8817 33.3252C63.8006 33.3252 63.6442 33.3252 63.5283 33.3152V34.1647L63.0503 34.1684ZM63.5283 32.2042V32.9261C63.6404 32.9364 63.753 32.9418 63.8657 32.9423C64.1554 32.9423 64.3712 32.8247 64.3712 32.567C64.3712 32.3092 64.196 32.2016 63.8701 32.2016C63.776 32.1979 63.6586 32.2004 63.5312 32.2042H63.5283Z" fill="#A4D55D"/>
</g>
<defs>
<clipPath id="clip0">
<rect width="97" height="62" fill="white"/>
</clipPath>
</defs>
</svg>
