<svg width="278" height="178" viewBox="0 0 278 178" fill="none" xmlns="http://www.w3.org/2000/svg">
<path d="M134.508 105.499C132.402 112.787 122.736 120.579 115.669 118.532C108.602 116.484 108.168 107.062 110.273 99.7743C112.379 92.4864 120.263 84.9445 127.33 86.9921C134.396 89.0396 136.614 98.2113 134.508 105.499Z" fill="#14482B"/>
<path d="M150.217 71.3143C152.999 76.276 154.877 83.9729 146.091 88.9131C138.365 93.2568 135.182 87.3655 132.4 82.4037C129.618 77.442 130.183 69.0051 135.588 65.9656C140.994 62.9261 147.434 66.3525 150.217 71.3143Z" fill="#14482B"/>
<path d="M160.184 135.362C158.078 142.65 153.237 155.729 146.17 153.681C133.764 150.087 133.77 134.218 135.876 126.93C137.981 119.642 145.913 113.937 152.98 115.984C160.047 118.032 162.29 128.074 160.184 135.362Z" fill="#14482B"/>
<path d="M200.667 135.647C198.561 142.935 191.768 149.038 186.451 147.498C176.925 144.738 174.715 131.386 176.821 124.098C178.927 116.811 185.874 111.328 192.94 113.376C200.007 115.423 202.773 128.359 200.667 135.647Z" fill="#14482B"/>
<path d="M238.109 153.875C236.003 161.163 228.659 168.039 223.964 166.679C218.204 165.01 214.264 148.991 216.369 141.703C218.475 134.415 220.978 127.581 230.695 132.7C238.44 136.78 240.215 146.587 238.109 153.875Z" fill="#14482B"/>
<path d="M244.616 167.045C245.834 174.533 252.301 182.241 257.125 181.455C263.044 180.49 268.545 167.196 267.328 159.708C266.11 152.22 263.936 146.397 253.341 149.105C244.861 151.271 243.399 159.557 244.616 167.045Z" fill="#14482B"/>
<path d="M152.209 173.943C153.606 182.533 160.278 191.497 165.102 190.711C171.02 189.746 175.901 176.836 174.504 168.246C173.107 159.656 170.007 151.348 159.434 154.196C150.974 156.475 150.812 165.353 152.209 173.943Z" fill="#14482B"/>
<path d="M178.574 166.688C176.957 174.06 178.087 183.117 183.962 184.409C190.912 185.938 197.547 176.783 199.164 169.411C200.781 162.04 200.903 154.284 192.841 152.44C185.132 150.677 180.191 159.317 178.574 166.688Z" fill="#14482B"/>
<path d="M102.563 140.373C100.946 147.744 103.335 160.311 114.771 161.704C121.834 162.565 125.521 153.999 127.138 146.627C128.755 139.256 127.064 128.071 119.003 126.227C111.294 124.464 104.18 133.001 102.563 140.373Z" fill="#14482B"/>
<path d="M218.603 115.038C218.907 120.756 215.993 128.465 211.822 128.688C204.348 129.087 200.333 118.721 200.028 113.004C199.723 107.286 202.863 101.763 208.407 101.467C213.952 101.17 218.298 109.32 218.603 115.038Z" fill="#14482B"/>
<path d="M176.402 97.8205C178.397 104.428 178.501 115.789 168.856 118.708C160.375 121.275 158.011 112.775 156.017 106.167C154.023 99.5598 156.614 88.8106 162.548 87.0146C168.483 85.2185 174.408 91.2128 176.402 97.8205Z" fill="#14482B"/>
<path d="M86.4596 85.4263C87.9959 79.9478 95.3942 67.9507 101.669 69.7151C111.308 72.4257 109.595 84.7944 108.058 90.2729C106.522 95.7514 101.16 101.854 93.0264 99.5663C84.8923 97.279 84.9233 90.9048 86.4596 85.4263Z" fill="#14482B"/>
<path d="M60.8235 74.8089C62.3598 69.3304 68.8705 60.4905 76.4645 62.626C87.6572 65.7735 84.3906 77.7053 82.8543 83.1838C81.3179 88.6623 75.9563 94.7646 67.8223 92.4772C59.6882 90.1899 59.2871 80.2874 60.8235 74.8089Z" fill="#14482B"/>
<path d="M79.226 118.072C82.2379 111.061 87.1101 103.707 94.373 105.75C105.078 108.76 101.808 120.691 100.272 126.17C98.7353 131.648 92.5442 142.929 82.5983 140.132C72.6523 137.335 75.7864 126.078 79.226 118.072Z" fill="#14482B"/>
<path d="M77.1837 117.27C80.1729 110.249 81.7571 100.291 78.4218 98.2156C71.9123 94.1659 62.0929 101.358 59.1929 106.251C56.293 111.145 49.9843 126.48 59.9019 133.192C65.9468 136.784 73.7701 125.287 77.1837 117.27Z" fill="#14482B"/>
<path d="M27.5596 106.116C29.0959 100.637 35.4635 90.774 43.0576 92.9096C51.9134 95.3999 50.1777 109.345 48.6414 114.824C47.105 120.302 41.7434 126.404 33.6094 124.117C25.4753 121.83 26.0232 111.594 27.5596 106.116Z" fill="#14482B"/>
<path d="M31.7201 69.301C36.2342 65.8445 46.9203 61.0736 51.1397 66.5992C57.3585 74.7433 47.3673 84.574 42.8532 88.0305C38.3391 91.487 29.9098 93.2592 25.3904 87.3407C20.871 81.4222 27.2061 72.7575 31.7201 69.301Z" fill="#14482B"/>
<path d="M-2.19162 76.3223C-0.251345 72.1644 1.81387 67.0802 8.19537 70.8519C14.4089 74.5244 12.0638 80.5758 8.36062 84.7213C5.4824 87.9434 1.19379 89.5821 -1.60999 87.8521C-4.41376 86.1222 -3.71568 79.5883 -2.19162 76.3223Z" fill="#14482B"/>
<path d="M5.03406 104.68C5.52164 98.544 8.81831 88.1276 16.3402 89.463C23.0023 90.6457 25.4593 101.649 22.7513 108.598C20.6465 114 15.6938 117.479 11.3602 116.624C7.02666 115.77 4.65107 109.5 5.03406 104.68Z" fill="#14482B"/>
<path d="M-19.187 101.417C-14.0028 94.4687 -2.71363 88.8742 2.11981 94.798C7.76848 101.721 -1.22048 114.557 -7.38611 118.743C-12.1782 121.997 -17.2169 119.611 -19.595 116.726C-21.9731 113.841 -23.1647 106.748 -19.187 101.417Z" fill="#14482B"/>
<path d="M-29.0215 75.6597C-24.8106 69.2042 -14.6284 65.5093 -9.26863 71.0453C-1.47125 79.0991 -7.6831 88.3486 -13.8487 92.5351C-18.6409 95.789 -24.4758 95.2067 -28.7815 91.2357C-31.4169 88.8053 -32.2876 80.6668 -29.0215 75.6597Z" fill="#14482B"/>
<path d="M-21.0613 139.217C-18.4812 130.055 -8.56847 121.346 -1.04402 125.203C9.90254 130.813 6.012 144.019 0.610549 151.492C-3.58764 157.3 -10.1005 159.245 -15.9983 156.684C-19.6082 155.117 -23.0626 146.322 -21.0613 139.217Z" fill="#14482B"/>
<path d="M7.12994 140.586C8.39532 132.137 15.3883 122.787 21.5388 124.821C27.6894 126.856 28.5296 139.99 24.9386 147.465C22.1475 153.274 17.2491 156.121 12.4653 154.93C5.93389 153.303 6.14848 147.139 7.12994 140.586Z" fill="#14482B"/>
<path d="M32.7495 144.578C33.6439 135.635 42.0677 126.261 50.4329 129.018C58.7981 131.775 59.7242 141.803 55.6475 149.484C52.479 155.454 46.4883 161.877 41.1786 160.462C33.7201 158.474 32.0557 151.515 32.7495 144.578Z" fill="#14482B"/>
<path d="M60.0793 159.817C61.5151 151.05 64.7426 140.116 76.3959 143.977C82.2663 145.922 83.2124 152.608 79.5622 160.427C76.725 166.505 67.2363 174.075 63.4809 173.166C59.7258 172.256 58.9656 166.617 60.0793 159.817Z" fill="#14482B"/>
<path d="M76.6468 175.555C78.1927 166.449 84.3483 154.888 96.0007 158.751C101.871 160.697 102.307 169.616 98.5495 177.766C95.6289 184.101 89.8547 190.878 82.6879 189.165C78.9291 188.267 75.4478 182.617 76.6468 175.555Z" fill="#14482B"/>
<path d="M94.624 193.768C96.1698 184.662 103.454 170.445 113.09 173.639C117.573 175.125 120.767 188.117 117.01 196.267C114.089 202.601 108.563 209.982 101.396 208.27C97.6373 207.371 93.425 200.831 94.624 193.768Z" fill="#14482B"/>
<path d="M122.206 176.606C123.896 167.056 131.97 154.433 138.69 157.03C150.21 161.484 148.42 175.502 146.203 180.383C143.173 187.054 135.249 192.438 128.073 190.754C124.309 189.871 120.896 184.013 122.206 176.606Z" fill="#14482B"/>
<path d="M196.23 185.066C197.861 175.497 205.56 166.881 212.598 169.583C224.664 174.214 221.118 186.119 218.874 190.992C215.808 197.651 209.091 203.324 201.589 201.534C197.655 200.595 194.966 192.488 196.23 185.066Z" fill="#14482B"/>
<path d="M242.613 184.309C244.796 192.93 241.104 203.82 235.411 204.195C225.652 204.837 223.964 193.544 223.809 188.625C223.598 181.902 226.138 172.871 231.946 172.241C236.139 171.786 240.92 177.623 242.613 184.309Z" fill="#14482B"/>
<path d="M10.6049 170.632C8.98784 178.003 10.1187 187.061 15.9932 188.353C22.9434 189.882 29.5785 180.726 31.1955 173.355C32.8126 165.983 32.934 158.228 24.8724 156.384C17.1632 154.62 12.2219 163.26 10.6049 170.632Z" fill="#14482B"/>
<path d="M33.1113 182.41C34.7418 172.841 42.4405 164.226 49.4788 166.927C61.5448 171.559 57.9991 183.463 55.7553 188.336C52.6889 194.995 45.9714 200.668 38.4698 198.879C34.5354 197.94 31.8466 189.832 33.1113 182.41Z" fill="#14482B"/>
<path d="M2.64976 176.065C1.19462 184.838 -6.55028 193.329 -11.915 191.385C-21.1119 188.052 -18.133 177.03 -16.3033 172.462C-13.8028 166.22 -7.85752 158.968 -2.285 160.725C1.73784 161.993 3.77841 169.26 2.64976 176.065Z" fill="#14482B"/>
</svg>
